<?xml version="1.0" encoding="UTF-8"?>
<svg viewBox="0 0 245 93" version="1.1" xmlns="http://www.w3.org/2000/svg" xmlns:xlink="http://www.w3.org/1999/xlink">
    <title>Hutt City Council Logo</title>
    <defs>
        <polygon points="0 92.3498782 245 92.3498782 245 0 0 0"></polygon>
    </defs>
    <g stroke="none" stroke-width="1" fill="none" fill-rule="evenodd">
        <g transform="translate(-190.000000, -68.000000)">
            <g transform="translate(0.000000, 50.000000)">
                <g transform="translate(190.000000, 18.000000)">
                    <path d="M54.2134864,55.8969586 C54.2134864,60.3098477 51.9887249,62.4573811 47.4005876,62.4573811 C42.8570049,62.4573811 40.6500653,60.3098477 40.6500653,55.8969586 L40.6500653,23.8631657 L33.1262725,23.8631657 L33.1262725,56.0316126 C33.1262725,63.8257035 38.7292654,68.867308 47.4005876,68.867308 C56.2016133,68.867308 61.6689621,63.9514466 61.6689621,56.0316126 L61.6689621,23.8631657 L54.2134864,23.8631657 L54.2134864,55.8969586 Z" fill="#505050"></path>
                    <mask fill="white">
                        <use href="#path-1"></use>
                    </mask>
                    <g id="Clip-5"></g>
                    <polygon fill="#00BCD0" mask="url(#mask-2)" points="174.324467 67.7626501 181.781923 67.7626501 181.781923 23.8624727 174.324467 23.8624727"></polygon>
                    <polygon fill="#00BCD0" mask="url(#mask-2)" points="184.66441 30.6627972 194.319894 30.6627972 194.319894 67.7629471 201.7724 67.7629471 201.7724 30.6627972 211.425904 30.6627972 211.425904 23.8627697 184.66441 23.8627697"></polygon>
                    <polygon fill="#00BCD0" mask="url(#mask-2)" points="237.415415 23.6644521 229.204491 43.0774018 221.130201 23.8307894 221.058913 23.6644521 212.819276 23.6644521 225.345069 49.7774289 225.345069 67.5646295 232.801535 67.5646295 232.801535 49.7754487 244.999604 23.6644521"></polygon>
                    <polygon fill="#505050" mask="url(#mask-2)" points="94.8995914 30.6627972 104.557056 30.6627972 104.557056 67.7629471 112.007581 67.7629471 112.007581 30.6627972 121.660096 30.6627972 121.660096 23.8627697 94.8995914 23.8627697"></polygon>
                    <polygon fill="#505050" mask="url(#mask-2)" points="64.9325396 30.6627972 74.586044 30.6627972 74.586044 67.7629471 82.0405296 67.7629471 82.0405296 30.6627972 91.6930438 30.6627972 91.6930438 23.8627697 64.9325396 23.8627697"></polygon>
                    <path d="M41.6825447,90.7226439 C46.5518713,91.7959155 51.5390202,92.3493831 56.5430008,92.3493831 L56.544981,92.3493831 C60.4529176,92.3493831 64.4192702,92.0206689 68.3311672,91.3701712 C95.2263254,86.8850046 120.395734,66.2938323 133.774996,50.0224794 C136.711642,46.4521679 139.548287,42.7481926 142.289882,39.1659999 C154.400822,23.3629657 165.839482,8.43716281 185.160352,4.44209716 C199.141597,1.5618875 209.417876,1.14109372 220.251583,2.99357645 C208.651536,-0.0599012322 196.076238,-0.837132096 183.967278,0.936142397 C158.294897,4.68368229 141.847306,22.0797922 124.497731,42.7313608 C109.384798,60.7007404 88.6896653,85.3018299 61.9677752,89.9384823 C54.8816079,91.1721506 48.0845508,91.4176962 41.6825447,90.7226439" fill="#FEFEFE" mask="url(#mask-2)"></path>
                    <path d="M171.594852,54.7056666 L164.799775,54.7056666 L164.799775,55.4413132 C164.723537,59.7542019 162.247289,62.2621328 157.791826,62.2621328 C153.400719,62.2621328 150.783877,59.8344002 150.783877,55.7690373 L150.783877,35.9164818 C150.783877,31.8115147 153.400719,29.3600196 157.791826,29.3600196 C161.859169,29.3600196 164.683933,31.814485 164.767102,36.1046014 L164.775022,36.1046014 L164.775022,36.7590594 L171.591882,36.7590594 L171.591882,35.7778674 L171.583961,35.7778674 C171.359207,27.9550635 166.178988,22.8164288 157.597766,22.8164288 C147.06703,22.8164288 143.325431,30.2253697 143.325431,36.5679696 L143.325431,55.0522027 C143.325431,61.4245057 147.06703,68.86711 157.597766,68.86711 C166.181959,68.86711 171.371089,63.5660985 171.583961,55.6848785 L171.594852,55.6848785 L171.594852,54.7056666 Z" fill="#00BCD0" mask="url(#mask-2)"></path>
                    <polygon fill="#00BCD0" mask="url(#mask-2)" points="125.228229 78.9216061 125.228229 87.8147113 122.890596 87.8147113 122.890596 78.9216061 120.537121 78.9216061 120.537121 76.9265485 127.565862 76.9265485 127.565862 78.9216061"></polygon>
                    <polygon fill="#00BCD0" mask="url(#mask-2)" points="129.279532 87.8142163 129.279532 76.9270436 135.344903 76.9270436 135.344903 78.8884376 131.617166 78.8884376 131.617166 81.275576 134.183513 81.275576 134.183513 83.0409296 131.617166 83.0409296 131.617166 85.7706436 135.344903 85.7706436 135.344903 87.8142163"></polygon>
                    <path d="M143.988008,79.9514122 L143.154341,83.9237055 L144.755337,83.9237055 L143.988008,79.9514122 Z M145.524648,87.8138202 L145.06722,85.6563858 L142.811765,85.6563858 L142.353348,87.8138202 L140.16324,87.8138202 L142.712755,76.9266475 L145.328607,76.9266475 L147.862281,87.8138202 L145.524648,87.8138202 Z" fill="#00BCD0" mask="url(#mask-2)"></path>
                    <polygon fill="#00BCD0" mask="url(#mask-2)" points="156.815782 87.8142163 154.723695 87.8142163 153.4326 81.4547846 152.092001 87.8142163 150.015755 87.8142163 147.743468 76.9270436 150.06526 76.9270436 151.241502 84.0547951 152.614775 76.9270436 154.429634 76.9270436 155.73756 84.0547951 156.947466 76.9270436 159.1049 76.9270436"></polygon>
                    <path d="M163.07353,79.9514122 L162.239864,83.9237055 L163.84086,83.9237055 L163.07353,79.9514122 Z M164.61017,87.8138202 L164.152743,85.6563858 L161.897288,85.6563858 L161.43887,87.8138202 L159.248762,87.8138202 L161.798278,76.9266475 L164.41413,76.9266475 L166.947803,87.8138202 L164.61017,87.8138202 Z" fill="#00BCD0" mask="url(#mask-2)"></path>
                    <polygon fill="#00BCD0" mask="url(#mask-2)" points="177.388539 87.8142163 175.57467 83.3686537 174.772686 84.6924215 174.772686 87.8142163 172.436043 87.8142163 172.436043 76.9270436 174.772686 76.9270436 174.772686 81.7983504 177.355865 76.9270436 179.726172 76.9270436 177.192498 81.5042898 179.841024 87.8142163"></polygon>
                    <path d="M184.57738,79.9514122 L183.743713,83.9237055 L185.344709,83.9237055 L184.57738,79.9514122 Z M186.114019,87.8138202 L185.656592,85.6563858 L183.401137,85.6563858 L182.94272,87.8138202 L180.752612,87.8138202 L183.302127,76.9266475 L185.917979,76.9266475 L188.451653,87.8138202 L186.114019,87.8138202 Z" fill="#00BCD0" mask="url(#mask-2)"></path>
                    <polygon fill="#00BCD0" mask="url(#mask-2)" points="190.033441 87.8142163 192.371074 87.8142163 192.371074 76.9270436 190.033441 76.9270436"></polygon>
                    <path d="M198.860408,79.6410149 C198.860408,79.1014088 198.630704,78.757843 198.025751,78.757843 L196.701983,78.757843 L196.701983,81.7499343 L197.928721,81.7499343 C198.533674,81.7499343 198.860408,81.439042 198.860408,80.7845839 L198.860408,79.6410149 Z M200.23368,87.8796621 C199.285162,87.8796621 198.924764,87.225204 198.924764,86.2123286 L198.924764,84.4301432 C198.924764,83.8588537 198.630704,83.3687528 197.961394,83.3687528 L196.701983,83.3687528 L196.701983,87.8143153 L194.36534,87.8143153 L194.36534,76.9271426 L198.288128,76.9271426 C200.053482,76.9271426 201.115862,77.941008 201.115862,79.5103213 L201.115862,80.6875538 C201.115862,81.5697356 200.691108,82.2400353 199.709916,82.5014225 C200.691108,82.7301363 201.164377,83.5469713 201.164377,84.2994496 L201.164377,86.081635 C201.164377,86.5885677 201.328734,86.9311434 201.622795,87.1935207 L201.622795,87.8796621 L200.23368,87.8796621 Z" fill="#00BCD0" mask="url(#mask-2)"></path>
                    <path d="M206.784103,79.9514122 L205.950436,83.9237055 L207.551433,83.9237055 L206.784103,79.9514122 Z M208.320743,87.8138202 L207.863315,85.6563858 L205.606871,85.6563858 L205.149443,87.8138202 L202.959335,87.8138202 L205.50885,76.9266475 L208.124702,76.9266475 L210.658376,87.8138202 L208.320743,87.8138202 Z" fill="#00BCD0" mask="url(#mask-2)"></path>
                    <polygon fill="#00BCD0" mask="url(#mask-2)" points="217.71682 87.8142163 215.31384 83.4498422 214.382153 81.6676568 214.382153 87.8142163 212.241551 87.8142163 212.241551 76.9270436 214.186113 76.9270436 216.523746 81.3904279 217.406918 83.1716232 217.406918 76.9270436 219.514848 76.9270436 219.514848 87.8142163"></polygon>
                    <path d="M227.275572,87.8142163 L226.981511,86.8171825 C226.556757,87.6340175 225.674575,88.0914451 224.644868,88.0914451 C222.486444,88.0914451 221.39139,86.6043104 221.39139,84.9211353 L221.39139,79.8211147 C221.39139,78.2022962 222.682484,76.6656564 225.003286,76.6656564 C227.325077,76.6656564 228.501319,78.1211078 228.501319,79.8211147 L228.501319,80.6379496 L226.245865,80.6379496 L226.245865,79.7547778 C226.245865,79.1508149 225.886457,78.6280405 225.020117,78.6280405 C224.169619,78.6280405 223.761696,79.1834883 223.761696,79.7874512 L223.761696,84.9528186 C223.761696,85.5419299 224.202292,86.1142094 225.035959,86.1142094 C225.902299,86.1142094 226.328043,85.5419299 226.328043,84.9528186 L226.328043,83.8260813 L225.052791,83.8260813 L225.052791,82.2240947 L228.550825,82.2240947 L228.550825,87.8142163 L227.275572,87.8142163 Z" fill="#00BCD0" mask="url(#mask-2)"></path>
                    <polygon fill="#00BCD0" mask="url(#mask-2)" points="230.363307 87.8142163 232.69995 87.8142163 232.69995 76.9270436 230.363307 76.9270436"></polygon>
                    <path d="M56.5430008,92.3493831 C60.4529176,92.3493831 64.4192702,92.0206689 68.3311672,91.3701712 C95.2263254,86.8850046 120.395734,66.2938323 133.774996,50.0224794 C136.711642,46.4521679 139.548287,42.7481926 142.289882,39.1659999 C154.400822,23.3629657 165.839482,8.43716281 185.160352,4.44209716 C199.141597,1.5618875 209.417876,1.14109372 220.251583,2.99357645 C208.651536,-0.0599012322 196.076238,-0.837132096 183.967278,0.936142397 C158.294897,4.68368229 141.847306,22.0797922 124.497731,42.7313608 C109.384798,60.7007404 88.6896653,85.3018299 61.9677752,89.9384823 C54.8816079,91.1721506 48.0845508,91.4176962 41.6825447,90.7226439 C46.5518713,91.7959155 51.5390202,92.3493831 56.5430008,92.3493831 Z" fill="#00BCD0" mask="url(#mask-2)"></path>
                    <polygon fill="#505050" mask="url(#mask-2)" points="21.6749391 23.8622747 21.6749391 42.213834 7.45606974 42.213834 7.45606974 23.8622747 -0.000396041204 23.8622747 -0.000396041204 67.7624521 7.45606974 67.7624521 7.45606974 48.8881184 21.6749391 48.8881184 21.6749391 67.7624521 29.1284345 67.7624521 29.1284345 23.8622747"></polygon>
                </g>
            </g>
        </g>
    </g>
</svg>