<svg xmlns="http://www.w3.org/2000/svg" width="251" height="33" viewBox="0 0 251 33" fill="none">
  <path d="M34.3386 20.7952C34.6161 21.6274 34.8009 22.6444 34.8009 23.7539C34.8009 24.9557 34.6161 25.9727 34.3386 26.8049C34.0613 27.6369 33.5991 28.3766 33.0443 29.0237C32.4896 29.6709 31.8424 30.1332 31.1026 30.5031C30.3631 30.8729 29.5311 31.1502 28.6064 31.4277C27.6819 31.6124 26.6649 31.7974 25.6478 31.8899C24.6308 31.9824 23.5214 31.9824 22.4119 31.9824H0.5V2.02683H21.9496C22.7818 2.02683 23.7063 2.02684 24.5384 2.11932C25.3706 2.21163 26.2026 2.30411 27.0346 2.48908C27.8668 2.67406 28.5141 2.95134 29.2536 3.32111C29.9008 3.69107 30.5481 4.15333 31.0103 4.70807C31.4726 5.26282 31.9349 6.00236 32.2121 6.74208C32.4896 7.57411 32.6744 8.49862 32.6744 9.60811C32.6744 11.5496 32.2121 13.1214 31.1951 14.2309C30.2706 15.3404 28.6989 16.1724 26.6649 16.5424C28.1441 16.6347 29.3461 16.8196 30.4556 17.1894C31.4726 17.5594 32.3046 18.0216 33.0443 18.5764C33.5066 19.2234 33.9689 19.9631 34.3386 20.7952ZM8.63607 13.6761H20.5628C21.3949 13.6761 22.0421 13.5836 22.5968 13.4913C23.1516 13.3064 23.5214 13.1214 23.7988 12.9366C24.0761 12.6591 24.3536 12.3819 24.4459 12.0119C24.5384 11.6421 24.6308 11.2724 24.6308 10.9026C24.6308 10.5326 24.5384 10.1629 24.4459 9.79309C24.3536 9.42314 24.0761 9.14587 23.7988 8.86858C23.5214 8.59112 23.0591 8.40614 22.5968 8.22135C22.0421 8.03637 21.3949 7.94388 20.5628 7.94388H8.63607V13.6761ZM26.4799 22.8292C26.4799 22.1821 26.3876 21.6274 26.1101 21.1651C25.8328 20.7029 25.5554 20.4254 25.0006 20.2404C24.5384 20.0556 23.8911 19.8707 23.0591 19.7782C22.2271 19.6859 21.3025 19.6859 20.2855 19.6859H8.63607V26.0652H20.3778C21.4873 26.0652 22.4119 26.0652 23.1516 25.9727C23.9836 25.8802 24.5384 25.7879 25.0931 25.5104C25.5554 25.2331 25.9253 24.9557 26.2026 24.4934C26.3876 24.0312 26.4799 23.4764 26.4799 22.8292ZM110.337 17.9291C109.597 17.2819 108.673 16.6347 107.656 16.1724C106.639 15.7102 105.622 15.2479 104.42 14.8781C103.31 14.5083 102.109 14.1384 100.907 13.8611C99.7046 13.5836 98.5028 13.3064 97.3933 13.0289C96.2838 12.7516 95.1743 12.5667 94.1573 12.2894C93.1403 12.1044 92.3083 11.8271 91.4761 11.5496C90.7365 11.2724 90.0893 10.9949 89.7195 10.7176C89.2572 10.3478 89.0723 9.97789 89.0723 9.60811C89.0723 9.51563 89.0723 9.33084 89.1648 9.14587C89.2572 8.96089 89.3496 8.86858 89.5345 8.68361C89.7195 8.49863 89.9968 8.40614 90.2742 8.22135C90.644 8.03637 91.1063 7.94388 91.661 7.8514C92.2158 7.75909 92.9553 7.6666 93.695 7.57411C94.5271 7.48162 95.5441 7.48162 96.6536 7.48162C98.1328 7.48162 99.5198 7.57411 100.907 7.75909C102.293 7.94388 103.588 8.22135 104.79 8.59112C105.992 8.86858 107.009 9.23834 107.933 9.60811C108.858 9.97789 109.597 10.2554 110.152 10.5326V3.50609C109.228 3.22863 108.211 2.95134 107.101 2.67406C105.992 2.39659 104.79 2.11932 103.68 1.93435C102.478 1.74937 101.276 1.56457 100.075 1.47209C98.8726 1.3796 97.6706 1.28711 96.4688 1.28711C95.3593 1.28711 94.2498 1.28711 93.1403 1.3796C91.9383 1.47209 90.829 1.65706 89.627 1.84186C88.5175 2.11932 87.408 2.3966 86.2985 2.85885C85.2815 3.32111 84.357 3.87586 83.525 4.5231C82.7853 5.17033 82.138 6.00236 81.6758 6.92688C81.2135 7.85139 80.9362 9.05337 80.9362 10.3478C80.9362 11.4572 81.121 12.4743 81.5833 13.3064C82.0457 14.1384 82.6005 14.8781 83.34 15.5254C84.0797 16.1724 85.0043 16.7271 86.0213 17.1894C87.0383 17.6517 88.0553 18.1141 89.2572 18.3914C90.3666 18.7612 91.5685 19.0386 92.7705 19.3159C93.9723 19.5934 95.0818 19.7782 96.2838 20.0556C97.3933 20.2404 98.5028 20.5179 99.5198 20.7029C100.537 20.8877 101.369 21.1651 102.201 21.4424C102.941 21.7199 103.588 21.9972 103.958 22.3669C104.42 22.7369 104.605 23.1067 104.605 23.6614C104.605 23.9387 104.512 24.3086 104.235 24.5859C104.05 24.9557 103.588 25.2331 103.033 25.5104C102.386 25.7879 101.554 26.0652 100.444 26.2501C99.3348 26.4349 97.948 26.5274 96.1913 26.5274C93.2328 26.5274 90.5515 26.2501 87.9628 25.6029C85.374 24.9557 83.155 24.1237 81.121 23.0142V30.2257C83.0627 30.9654 85.2815 31.5201 87.7778 32.0747C90.2743 32.6295 93.0478 32.8144 96.0063 32.8144C97.1158 32.8144 98.3178 32.8144 99.6121 32.7219C100.907 32.6295 102.109 32.5371 103.31 32.2597C104.512 31.9824 105.714 31.7049 106.824 31.2427C107.933 30.7804 108.95 30.2257 109.782 29.4861C110.614 28.7464 111.354 27.9144 111.816 26.8974C112.371 25.8802 112.556 24.5859 112.556 23.1991C112.556 22.0896 112.371 21.0726 111.909 20.2404C111.631 19.4084 111.077 18.5764 110.337 17.9291ZM115.237 8.59112H127.996V32.0747H136.132V8.59112H148.891V2.02683H115.237V8.59112ZM161.28 2.02683H153.144V32.0747H161.28V2.02683ZM206.306 10.2554C207.231 12.1969 207.692 14.5083 207.692 17.0971C207.692 19.6859 207.231 21.9971 206.306 23.9387C205.381 25.8802 203.995 27.5444 202.237 28.9314C200.481 30.2257 198.355 31.2427 195.858 31.9824C193.361 32.6295 190.497 32.9994 187.352 32.9994C184.208 32.9994 181.343 32.6295 178.847 31.9824C176.35 31.3352 174.131 30.3182 172.375 28.9314C170.618 27.6369 169.231 25.9727 168.307 23.9387C167.382 21.9971 166.827 19.6859 166.827 17.0971C166.827 14.5083 167.29 12.1969 168.307 10.2554C169.231 8.31383 170.618 6.6496 172.375 5.26282C174.131 3.96835 176.35 2.95134 178.847 2.21162C181.343 1.56456 184.208 1.19462 187.352 1.19462C190.497 1.19462 193.269 1.56456 195.858 2.21162C198.355 2.85885 200.481 3.87587 202.237 5.26282C203.995 6.55711 205.381 8.22134 206.306 10.2554ZM199.556 17.0971C199.556 15.9876 199.372 14.8781 199.003 13.7686C198.631 12.6591 197.984 11.6421 197.061 10.7176C196.136 9.79309 194.933 9.14587 193.361 8.59112C191.791 8.03637 189.756 7.75909 187.352 7.75909C185.688 7.75909 184.302 7.8514 183.007 8.12886C181.805 8.40614 180.696 8.7761 179.771 9.14587C178.847 9.60813 178.107 10.1629 177.46 10.7176C176.812 11.3648 176.35 12.0119 175.98 12.6591C175.611 13.3064 175.333 14.0459 175.241 14.7856C175.056 15.5254 175.056 16.2649 175.056 17.0046C175.056 17.7442 175.148 18.4839 175.241 19.2234C175.426 19.9631 175.611 20.7029 175.98 21.4424C176.35 22.0896 176.812 22.7369 177.46 23.3839C178.107 23.9387 178.847 24.4934 179.771 24.9557C180.696 25.4179 181.713 25.7879 183.007 25.9727C184.208 26.2501 185.688 26.3426 187.352 26.3426C189.756 26.3426 191.791 26.0652 193.361 25.5104C194.933 24.9557 196.136 24.2161 197.061 23.3839C197.984 22.4594 198.631 21.5349 199.003 20.3329C199.372 19.3159 199.556 18.2064 199.556 17.0971ZM242.456 2.02683V22.7369L222.115 2.02683H213.332V32.0747H221.468V11.4572L241.716 32.0747H250.5V2.02683H242.456ZM70.3962 32.2597H80.0117L57.3601 0.455078L34.8009 32.2597H44.2314L57.3601 13.8611L70.3962 32.2597Z" fill="#1B6CF8"/>
</svg>