<?xml version="1.0" encoding="UTF-8"?>
<!-- Generator: Adobe Illustrator 20.1.0, SVG Export Plug-In . SVG Version: 6.00 Build 0)  -->
<svg version="1.1" id="Layer_1" xmlns="http://www.w3.org/2000/svg" xmlns:xlink="http://www.w3.org/1999/xlink" x="0px" y="0px" viewBox="0 0 332 122" style="enable-background:new 0 0 332 122;" xml:space="preserve">
<style type="text/css">
	.st0{fill:#00AF55;}
	.st1{fill:#FFFFFF;}
	.st2{fill:#5F259F;}
	.st3{fill:#EC008C;}
	.st4{fill:#FF9B00;}
</style>
<g>
	<path class="st2" d="M93.9,57.9C93.9,57.9,94,57.9,93.9,57.9C94,57.9,94,57.9,93.9,57.9 M3.4,57.3c-0.1,0.1,0,0.1,0.1,0.1   c0.1,0,0.2,0,0.2,0.1c1.9,0.5,3.9,1.1,5.7,1.6c0.1,0,0.1,0.1,0.2,0C7.5,58.6,5.5,57.9,3.4,57.3C3.4,57.3,3.4,57.3,3.4,57.3    M122.9,73.3c-5.5-0.9-19.4-0.9-27.9-0.8c-0.5-0.2-0.9-0.4-1.4-0.7c-3.6-1.7-7.3-3.4-10.9-5.1c0.6-0.6,1.2-1.1,1.9-1.7c0,0,0,0,0,0   c5.4,2,13.8,4.9,19.3,6.8h0c0,0,0,0,0,0c0,0,0,0,0,0c0.4,0.1,1.2-0.6,1.5-1.7c0.3-1.1,0.2-2.1-0.2-2.3c0,0-12.4-4.3-17.1-6   c2.5-2.2,5.1-4.3,7.6-6.5c2.5-2.2,5.1-4.3,7.6-6.4c1.3-1.1,2.6-2.1,3.9-3.2c2.6-2.1,5.2-4.2,8-6.1c0.7-0.5,1.4-1,2.1-1.4   c0.5-0.3,0.9-0.6,1.4-0.8c0.3-0.2,0.6-0.3,0.9-0.4c0,0,0,0,0,0c0-0.1-0.1,0,0-0.1c0,0,0.1-0.1,0.2-0.1c0-0.2,0.1-0.5,0-0.7   c-0.2,0-0.3,0.1-0.5,0.1c0,0,0-0.1,0-0.1c-0.7,0.4-1.4,0.7-2.1,1.1c-0.1,0.1-0.3,0.1-0.4,0.2c0,0-0.1,0-0.1,0.1c-1,0.5-2,1-3,1.5   c-0.9,0.5-1.9,0.9-2.8,1.4c-0.9,0.5-1.8,0.9-2.8,1.4c-3.7,2-7.3,3.9-10.9,5.9c0.4-0.3,0.8-0.7,1.2-0.9c0.5-0.3,0.9-0.5,1.4-0.8   c2.8-1.5,5.5-3.1,8.3-4.6c1.9-1,3.7-2,5.6-3c1.6-0.8,3.3-1.7,5-2.5c0.2-0.1,0.5-0.3,0.8-0.2c0,0,0.1,0,0.1,0.1   c0.1,0.1,0.2,0.1,0.3,0.2c0.1,0.2,0.2,0.6,0.1,0.9c0,0.1-0.1,0.1-0.2,0.2c0,0-0.1,0.1-0.1,0.1c-0.1,0.1-0.2,0.1-0.2,0.1   c-0.5,0.3-0.9,0.5-1.4,0.8c-0.9,0.6-1.8,1.2-2.6,1.8c-0.3,0.2-0.6,0.4-0.9,0.6c-1.7,1.2-3.4,2.5-5,3.8c-1.1,0.9-2.2,1.8-3.3,2.7   c-0.2,0.2-0.5,0.4-0.7,0.6c-2.4,2-4.7,4.1-7.1,6.1c-1.6,1.4-3.1,2.7-4.7,4.1c0,0,0,0,0,0c3.8-3.2,7.6-6.3,11.4-9.4   c-3.1,2.6-6.2,5.2-9.2,7.9c0,0,0,0,0,0c0.4-0.3,0.8-0.6,1.2-0.9c-1.2,1.2-2.5,2.3-3.7,3.5c-1,0.9-1.9,1.7-2.8,2.6   c-0.3,0.2-0.6,0.5-0.8,0.8c0,0-0.1,0.1-0.1,0.1c0.4-0.3,0.7-0.6,1-0.8c1.7-1.4,3.3-2.9,5-4.3c1.3-1.1,2.7-2.3,4-3.4   c0.7-0.6,1.4-1.1,2-1.7c0,0,0,0,0.1-0.1c0.1-0.1,0.1-0.1,0.2-0.2c1.3-1.1,2.5-2.1,3.8-3.2c2-1.7,4.1-3.3,6.2-4.9   c1.1-0.8,2.1-1.6,3.2-2.4c0.4-0.3,0.7-0.5,1.1-0.8c1.1-0.8,2.2-1.5,3.4-2.1c0.4-0.2,0.8-0.4,1.1-0.8c0.2-0.4,0.4-0.9,0.3-1.5   c-0.1-0.5-0.3-0.9-0.7-1.1c0.2,0.2,0.4,0.4,0.5,0.7c0.1,0.3,0.2,0.6,0.2,1c0,0.1-0.1,0.3-0.1,0.4c-0.1,0.3-0.3,0.5-0.5,0.7   c-0.1,0.1-0.2,0.2-0.4,0.3c-0.3,0.2-0.5,0.3-0.8,0.4c-0.8,0.4-1.6,0.9-2.3,1.3c-0.5,0.3-1,0.7-1.5,0.9c1-0.9,2.2-1.7,3.5-2.4   c0.3-0.2,0.6-0.4,0.9-0.5c0.3-0.2,0.6-0.4,0.7-0.8c0.2-0.4,0.1-0.9,0-1.2c-0.2-0.3-0.4-0.6-0.8-0.7c0.5-0.2,1-0.5,1.5-0.8   c0.3-0.2,0.7-0.4,1-0.7c0.1-0.1,0.2-0.2,0.3-0.3c0.2-0.2,0.3-0.4,0.4-0.7c0.1-0.2,0.2-0.5,0.2-0.8c0-0.3-0.1-0.6-0.2-0.9   c-0.1-0.3-0.2-0.5-0.4-0.7c-0.3-0.4-0.7-0.7-1.3-0.8c-0.3-0.1-0.6-0.1-0.9-0.1c-2.8,0.3-5,1.2-7.3,2c0.4-0.1,1-0.4,1.5-0.5   c-1.5,0.6-3.1,1.2-4.6,1.8c-0.9,0.4-1.7,0.9-2.4,1.4c0.7-0.6,1.4-1.2,2.1-1.9c0.6-0.6,1.2-1.4,1.8-2.1c0.3-0.3,0.5-0.7,0.8-1.1   c0.3-0.4,0.5-0.8,0.6-1.3c0.1-0.3,0.1-0.7,0-0.9c-0.1-0.2-0.2-0.4-0.4-0.6c-0.1-0.2-0.3-0.3-0.5-0.4c-0.2-0.1-0.4-0.3-0.7-0.3   c-0.1,0-0.3,0-0.4,0.1c-0.7,0.1-1.2,0.4-1.7,0.8c-0.2,0.1-0.4,0.3-0.6,0.4c-1.6,1.1-2.9,2.3-4.3,3.5c-2.1,1.8-4.2,3.7-6.3,5.5   c-2,1.8-4,3.5-6,5.3c-0.1,0.1-0.2,0.2-0.3,0.2c-2.8,2.4-5.6,4.9-8.4,7.3c-2.1,1.8-4.2,3.7-6.3,5.5c1.5-1.5,3-3,4.6-4.4   c0.4-0.4,0.8-0.7,1.1-1.1c0.4-0.4,0.7-0.8,1.1-1.1c0.4-0.4,0.8-0.7,1.1-1.1c0.4-0.4,0.8-0.7,1.1-1.1c3-3,6-6,9-8.9   c3.7-3.7,7.5-7.5,11.2-11.2c0.6-0.6,1.1-1.1,1.6-1.7c0.2-0.2,0.4-0.4,0.5-0.6c0.3-0.5,0.5-1,0.5-1.5c0-0.2,0-0.3,0-0.5   c0-0.4-0.3-0.7-0.5-1c-0.1-0.1-0.1-0.1-0.2-0.2c-0.2-0.2-0.5-0.3-0.8-0.3c-0.3-0.1-0.7,0-1,0.1c-0.6,0.2-1,0.4-1.5,0.7   c0,0-0.6,0.4-0.8,0.6c0.2-0.2,0.5-0.4,0.7-0.6c0,0,0,0,0-0.1c0,0,0,0,0,0c0.5-0.6,0.7-1.4,0.2-1.8c-0.4-0.5-1.3-0.4-2,0.1   c-0.1,0.1-0.3,0.3-0.4,0.4c-1,1.1-1.9,2.1-2.9,3.1c-0.3,0.3-0.5,0.6-0.9,0.9c-0.9,0.8-1.8,1.6-2.7,2.4c-0.6,0.5-1.2,1.1-1.8,1.6   c-0.6,0.5-1.2,1.1-1.8,1.6c-0.9,0.8-1.8,1.6-2.7,2.4c-0.3,0.3-0.6,0.5-0.9,0.8c0.8-0.6,1.5-1.1,2.3-1.6c-1.3,1.2-2.7,2.3-4.1,3.5   c-1.4,1.2-2.7,2.4-4.1,3.5c-2.7,2.3-5.3,4.7-7.9,7c0,0-0.1,0.1-0.1,0.1c0-1.8-0.1-5.2-0.1-5.4c0-0.2-0.5-0.4-1.1-0.4   c-0.2,0-0.3,0-0.5,0c0.1-2.6,0.1-5.3,0.2-7.9v0c0-0.6-0.7-1-1.6-1c0,0-0.1,0-0.1,0c0,0-0.1,0-0.1,0c-0.1,0-0.2,0-0.2,0   c-0.1,0-0.1,0-0.2,0.1c-0.1,0-0.1,0.1-0.2,0.1c-0.1,0-0.1,0.1-0.2,0.1c-0.1,0-0.1,0.1-0.2,0.1c0,0-0.1,0.1-0.1,0.1   c0,0-0.1,0.1-0.1,0.2c0,0.1,0,0.1-0.1,0.2c0,0.1,0,0.1,0,0.2c0,0,0,0,0,0.1c0,0,0,0,0,0.1v0.1c0,0,0,0,0,0.1c0,0,0,0,0,0.1   c0,0,0,0,0,0.1c0,0,0,0,0,0.1c0,0,0,0,0,0.1c0,0,0,0,0,0.1c0,0,0,0.1,0,0.1c0,0,0,0.1,0,0.1c0,0,0,0.1,0,0.1c0,0,0,0.1,0,0.1   c0,0,0,0.1,0,0.1c0,0,0,0.1,0,0.1c0,0,0,0.1,0,0.1c0,0,0,0.1,0,0.1c0,0,0,0.1,0,0.1c0,0,0,0.1,0,0.1c0,0,0,0.1,0,0.1   c0,0,0,0.1,0,0.1l0,0.1c0,0,0,0.1,0,0.1c0,0.1,0,0.1,0,0.2c0,0.1,0,0.1,0,0.2c0,0.1,0,0.1,0,0.2c0,0.1,0,0.1,0,0.2   c0,0.1,0,0.1,0,0.2l0,0.2c0,0.1,0,0.1,0,0.2c0,0.1,0,0.1,0,0.2c0,0.1,0,0.1,0,0.2c0,0.1,0,0.1,0,0.2c0,0.1,0,0.1,0,0.2   c0,0.1,0,0.1,0,0.2c0,0.1,0,0.1,0,0.2c0,0.1,0,0.1,0,0.2c0,0.1,0,0.1,0,0.2c0,0.1,0,0.1,0,0.2l0,0.2c0,0.1,0,0.1,0,0.2l0,0.2   c0,0.1,0,0.1,0,0.2l0,0.2c0,0.1,0,0.1,0,0.2c0,0.1,0,0.1,0,0.2l0,0.2c0,0.1,0,0.1,0,0.2c0,0.1,0,0.1,0,0.2c0,0.1,0,0.1,0,0.2   c0,0.1,0,0.1,0,0.2c0,0.1,0,0.1,0,0.2c0,0.1,0,0.1,0,0.2c0,0.1,0,0.1,0,0.2c0,0.1,0,0.1,0,0.2c0,0.1,0,0.1,0,0.2c0,0.1,0,0.1,0,0.2   c0,0.1,0,0.1,0,0.2c0,0.1,0,0.1,0,0.2c0,0.1,0,0.1,0,0.2l0,0.2c0,0.1,0,0.1,0,0.2c0,0.1,0,0.1,0,0.2c0,0.1,0,0.1,0,0.2   c0,0.1,0,0.1,0,0.2c0,0.1,0,0.1,0,0.2c0,0.1,0,0.1,0,0.2c0,0.1,0,0.1,0,0.2c0,0.1,0,0.1,0,0.2c0,0.1,0,0.1,0,0.2c0,0.1,0,0.1,0,0.2   c0,0.1,0,0.1,0,0.2c0,0.1,0,0.1,0,0.2c0,0.1,0,0.1,0,0.2c0,0.1,0,0.1,0,0.2c0,0.1,0,0.1,0,0.2c0,0.1,0,0.1,0,0.2c0,0.1,0,0.1,0,0.2   c0,0.1,0,0.1,0,0.2c0,0.1,0,0.1,0,0.2c0,0.1,0,0.1,0,0.2c0,0,0,0.1,0,0.1c0,0,0,0,0,0c0,0,0,0,0,0c0,0,0,0,0,0   c-0.2-0.4-0.4-0.7-0.5-1.1c-0.1-0.1-0.2-0.3-0.2-0.4c-0.1-0.7-0.1-1.5-0.1-2.2c0-0.7-0.1-1.5-0.1-2.2c-0.1-1.5-0.2-2.9-0.2-4.4   c-0.2-4-0.5-8-0.6-12.1c0-0.2,0-0.4,0-0.5c0-0.2,0-0.4,0.1-0.5c0.4-4.1,1.3-12.2,1.3-12.4c0-1.6-0.8-2.9-1.9-3   c-1.1,0-2,1.2-2.1,2.8c0,0.3,0.3,6,0.5,9c0,0.2,0.1,0.5,0,0.7c0,0.4-0.1,0.9-0.2,1.3c-0.3-2.2-0.7-4.4-1.1-6.6   c-0.4-2.1-0.8-4.2-1.3-6.3c-0.2-1.1-0.6-2.2-1.2-3.1C63.1,2,62.2,1,61.1,0.8c-1-0.2-1.8,0.1-2.4,0.6c-0.7,0.5-1.3,1.6-1.4,2.4   c-0.2,1.1,0,2.2,0.2,3.3c0.4,2.6,0.6,5.2,0.9,7.8c0.2,1.5,0.4,2.9,0.5,4.4c-0.4-0.7-0.7-1.4-1-2.2C55.6,12,53.2,6.8,50.8,1.7   c-0.1,0,0,0,0,0c0,0,0,0,0,0c1,2.3,2.1,4.6,3.1,7c-1.2-2.2-2.2-4.6-3.3-6.9c-0.7,0.3-1.3,0.6-2,0.9c0.1,0,0,0,0,0   c2.9,6.7,5.8,13.3,8.7,20c0.9,2.1,1.8,4.2,2.7,6.3c0.1,0.1,0.1,0.3,0.2,0.4c-2.3-4.9-4.6-9.9-6.9-14.8c0,0,0,0,0,0   c1.7,3.7,3.3,7.4,4.9,11.1c0,0.1,0.1,0.2,0.1,0.4c-2.1-4.5-4.3-8.9-6.4-13.4c0-0.1,0-0.1-0.1-0.1c-0.2,0.1-0.3,0.1-0.4,0.2   c-1.4-3.3-4-9.6-4.1-9.8c-0.7-1.4-2-2.2-3.1-1.8C43,1.4,42.8,2.9,43,4c0.2,0.8,0.5,1.6,0.8,2.4c0.3,0.8,0.6,1.7,1,2.5   C44.9,9.1,45,9.3,45,9.6c0.1,0.2,0.1,0.5,0.3,0.7c-0.6-0.8-1.4-1.2-2-1c-0.8,0.3-1,1.6-0.7,2.9c-0.6-0.8-1.3-1.2-1.9-0.9   c-0.8,0.3-1,1.7-0.4,3.2c0,0,0,0.1,0.1,0.1c0.1,0.1,0.1,0.2,0.2,0.4c0.6,1.5,1.2,3,1.8,4.5c-0.5-0.8-0.9-1.6-1.4-2.4   c-0.1-0.2-0.2-0.3-0.3-0.4c-0.3-0.3-0.7-0.4-1.1-0.2c-0.3,0.2-0.6,0.5-0.6,0.9c0,0.2,0.1,0.4,0.1,0.6c0.1,0.2,0.2,0.4,0.2,0.5   c0.9,2.2,1.8,4.2,2.7,6.4c1.8,4.3,3.6,8.5,5.5,12.8c1.2,2.6,2.3,5.3,3.5,7.9c0.1,0.2,0.2,0.3,0.2,0.5c-1.4-2.9-2.7-5.8-4.1-8.7   c1.7,3.9,3.4,7.9,5.1,11.7c0.1,0.1,0.1,0.2,0.1,0.4c-0.3-0.1-0.5-0.1-0.7-0.2c-0.2-0.1-0.5-0.1-0.7-0.2c-0.2-0.1-5.1-2.5-5.5-2.7   c-1.3-0.7-16.9-7.3-17.5-7.6c-0.1,0-0.2-0.1-0.2-0.1c-1.9-0.8-2.4,1-2.2,1.5c-0.6-0.2-1.3-0.5-2-0.7c-0.7-0.2-2-0.7-2-0.7   c-0.3-0.1-0.8,0.3-1,0.9c-0.1,0.3-0.2,0.7-0.1,0.9c-0.8-0.2-1.6-0.4-2.3-0.7c-0.4-0.1-0.8-0.3-1.3-0.4c-0.4-0.1-0.9-0.2-1.4-0.3   c-0.5-0.1-1-0.2-1.5-0.1c-0.5,0.1-1.1,0.2-1.5,0.6c-0.4,0.4-0.4,1-0.3,1.6c0.1,0.5,0.4,1,0.7,1.5c0.1,0.1,0.2,0.3,0.3,0.4   c0.1,0.1,0.2,0.2,0.3,0.4c0.1,0.1,0.3,0.3,0.4,0.4c0.2,0.1,0.3,0.3,0.5,0.4c0.2,0.1,0.4,0.2,0.6,0.4c0.2,0.1,0.4,0.3,0.7,0.4   c0.2,0.1,0.5,0.3,0.8,0.4c0.3,0.1,0.6,0.2,0.9,0.3c0.3,0.1,0.6,0.2,1,0.3c0.1,0,0.2,0.1,0.2,0.1c-0.4-0.1-0.7-0.1-1.1-0.2   c-0.2,0.9-0.6,2.1-0.6,2.1c0,0,0,0,0,0s14.9,6.4,22.5,9.5c-4.4-1.4-8.9-2.8-13.3-4.2c-1.5-0.5-3-0.9-4.4-1.4   c-2.9-0.9-6.1-1.7-9.5-2.2c-0.9-0.1-1.8-0.2-2.7-0.2c-0.4,0-0.9-0.1-1.3-0.2c-0.4-0.1-0.9-0.1-1.3-0.2c-0.2,0-0.4,0-0.6-0.1   c-0.2-0.1-0.4-0.1-0.6-0.2c-0.9-0.3-1.9-0.6-2.8-0.9c-0.2,0-0.3-0.1-0.5-0.1c0,0-0.1,0-0.1,0c-0.6-0.1-1.2,0.5-1.4,1.3   c-0.2,0.8,0.2,1.6,0.7,1.7c0,0,0.1,0,0.1,0c0,0,0.1,0,0.1,0c1.4,0.2,2.7,0.3,4,0.5c0.3,0,0.6,0.2,0.9,0.3c0.9,0.3,1.9,0.6,2.8,0.9   c-0.2,0.4-0.3,0.9-0.4,1.3c-0.1,0.3-0.2,0.7-0.3,1c0,0.1,0,0.1-0.1,0.2c1,0.3,2,0.6,3,0.9c7.1,2.1,14.2,4.2,21.2,6.3   c-0.2,0.6-0.4,1.2-0.6,1.8c-2.2-0.7-4.4-1.5-6.6-2.3c-1.1-0.4-2.2-0.8-3.3-1.1c-2.2-0.7-4.6-1.6-6.8-2.3c0,0-0.2-0.1-0.1,0   c0.1,0.1,0.3,0.1,0.4,0.2c1.9,0.7,3.8,1.3,5.7,2c0.9,0.3,1.9,0.7,2.8,1c0.1,0,0.3,0.1,0.4,0.2c-0.9-0.2-1.8-0.5-2.7-0.8   c-1.8-0.5-3.5-1.1-5.3-1.6c-0.9-0.3-1.8-0.6-2.6-0.9c-1-0.3-1.9-0.7-2.9-1c-0.5-0.2-1.4-0.5-2.5-0.9C7.6,56,6,55.4,4.5,54.9   c-0.1,0-0.2-0.1-0.3-0.1c-0.5-0.1-1,0.3-1.2,1c-0.2,0.7,0,1.3,0.5,1.5c0.1,0,0.2,0,0.2,0c0.2,0,0.2,0.1,0.4,0.1   c3.7,1,7.3,2.1,10.9,3.1c0.4,0.1,0.8,0.2,1.1,0.3c1.8,0.6,3.7,1.3,5.4,1.9c-0.9-0.2-1.8-0.5-2.7-0.7c0,0,0,0,0,0   c1.2,0.3,2.3,0.6,3.5,1c0.6,0.2,1.1,0.4,1.6,0.6c0.6,0.2,1.1,0.4,1.6,0.6c2.2,0.8,4.4,1.5,6.6,2.3c2.2,0.8,4.4,1.5,6.6,2.3   c2.2,0.7,4.4,1.5,6.6,2.3c-5.4,4.9-10.9,9.8-15.8,15.3c-0.9,1-1.8,2.1-2.6,3.2c-0.1,0.1-0.2,0.3-0.3,0.4c-0.2,0.2-0.5,0.4-0.7,0.6   c0,0-1.2,0.9-1.4,1.2c-0.2,0.3,0.1,1,0.7,1.4c0.6,0.4,1.3,0.5,1.6,0.2c0,0,0,0,0,0c0,0,0,0,0,0c0,0,0,0,0,0c0,0,0,0,0,0   c0.3-0.6,0.7-1.1,1-1.7c0.1-0.1,0.2-0.3,0.3-0.4c0.1-0.1,0.2-0.2,0.4-0.3c0.3-0.2,0.5-0.4,0.8-0.6c7.1-5.7,14.1-11.3,21.2-17.1   c0.1-0.1,0.3-0.3,0.4-0.3c0,0,0.2,0.1,0.2,0.1c0.2,0.1,0.5,0.2,0.7,0.2c-1.7,1.8-3.4,3.6-5,5.5c-0.4,0.5-0.8,0.9-1.3,1.4   c-0.8,0.9-1.7,1.8-2.5,2.8c-0.4,0.5-0.8,0.9-1.2,1.4c0.1,0,0.2-0.2,0.3-0.2c-3,3.2-9.2,9.4-9.2,9.4c0.2,0.2,0.3,0.3,0.5,0.5   c-1.4,1.3-2.9,2.7-4.4,4c0.1,0.1,0.3,0.3,0.4,0.4c-0.6,0.5-1.2,1-1.8,1.5c-0.1,0.1-0.3,0.2-0.3,0.2c-0.3,0.3-0.1,1.1,0.5,1.8   c0.5,0.6,1.1,1,1.5,0.9c0,0,0,0,0,0c-1,1-2.2,2.1-3.2,3.1c-0.1,0.1-0.4,0.4-0.5,0.5c-0.3,0.4-0.5,1.4-0.3,2c0,0.1,0.1,0.4,0.3,0.5   c-0.8,0.7-1.6,1.3-2.4,2c-0.1,0.1-0.2,0.2-0.2,0.2c-0.2,0.3-0.1,0.8,0.3,1.3c0.4,0.5,1,0.8,1.3,0.6c0,0,0,0,0,0   c0,0.2,0,0.5,0.2,0.8c0.3,0.4,0.6,0.6,0.9,0.5c0.1,0,0.1,0,0.1,0c0.1,0,0.1-0.1,0.1-0.1c2.8-2.2,5.5-4.4,8.2-6.6   c0.9-0.7,1.9-1.5,2.8-2.2c-0.9,1.2-1.7,2.5-2.6,3.6c-0.1,0.1-0.2,0.2-0.3,0.3c-0.4,0.4-0.8,0.7-1.1,1.1c-0.8,0.8-1.5,1.5-2.3,2.2   c-0.6,0.6-1.3,1.3-1.9,1.9c-0.1,0.1-0.4,0.3-0.4,0.3c-0.6,0.7-0.6,1.7,0,2.3c0,0,0,0,0,0c0,0,0,0,0.1,0c0,0,0.1,0,0.1,0.1   c0,0,0.1,0,0.1,0.1c0,0,0.1,0,0.1,0c0,0,0.1,0,0.1,0c0,0,0.1,0,0.1,0c0,0,0.1,0,0.1,0c0,0,0.1,0,0.1,0c0,0,0.1,0,0.1,0   c0,0,0.1,0,0.1,0c0,0,0.1,0,0.1,0c0,0,0.1,0,0.1,0c0,0,0.1,0,0.1,0c0,0,0.1,0,0.1,0c0,0,0.1,0,0.1-0.1c0,0,0.1,0,0.1-0.1   c0,0,0.1,0,0.1-0.1c0,0,0.1-0.1,0.1-0.1c0,0,0.1-0.1,0.1-0.1c0,0,0.1-0.1,0.1-0.1c0,0,0,0,0,0c0,0,0,0,0-0.1c0,0,0,0,0-0.1   c0,0,0,0,0.1-0.1c0,0,0-0.1,0.1-0.1c0,0,0-0.1,0.1-0.1c0,0,0-0.1,0.1-0.1c0,0,0.1-0.1,0.1-0.1c0,0,0.1-0.1,0.1-0.1   c0,0,0.1-0.1,0.1-0.1c0,0,0.1-0.1,0.1-0.1c0,0,0.1-0.1,0.1-0.1c0,0,0.1-0.1,0.1-0.1c0-0.1,0.1-0.1,0.1-0.2c0-0.1,0.1-0.1,0.1-0.2   s0.1-0.1,0.1-0.2c0-0.1,0.1-0.1,0.1-0.2c0-0.1,0.1-0.1,0.1-0.2c0-0.1,0.1-0.1,0.1-0.2c0-0.1,0.1-0.1,0.1-0.2c0-0.1,0.1-0.1,0.1-0.2   c0-0.1,0.1-0.1,0.1-0.2c0-0.1,0.1-0.1,0.1-0.2c0-0.1,0.1-0.1,0.1-0.2c0-0.1,0.1-0.1,0.1-0.2c0-0.1,0.1-0.1,0.1-0.2   c0-0.1,0.1-0.1,0.1-0.2c0-0.1,0.1-0.1,0.1-0.2c0-0.1,0.1-0.1,0.1-0.2c0-0.1,0.1-0.1,0.1-0.2c0-0.1,0.1-0.1,0.1-0.2   c0-0.1,0.1-0.1,0.1-0.2c0-0.1,0.1-0.1,0.1-0.2c0-0.1,0.1-0.1,0.1-0.2c0-0.1,0.1-0.1,0.1-0.2c0-0.1,0.1-0.1,0.1-0.2   c0-0.1,0.1-0.1,0.1-0.2c0-0.1,0.1-0.1,0.1-0.2c0-0.1,0.1-0.1,0.1-0.2c0-0.1,0.1-0.1,0.1-0.2c0-0.1,0.1-0.1,0.1-0.2   c0.3-0.4,0.6-0.9,1-1.2c0.4-0.3,0.7-0.7,1.1-1.1c1.1-1.1,2.2-2.1,3.3-3.2c1.1-1.1,2.2-2.1,3.3-3.2c0.4-0.4,0.7-0.7,1.1-1.1   c0.7-0.7,1.5-1.4,2.2-2.1c0.4-0.4,0.7-0.7,1.1-1.1c0.7-0.7,1.5-1.4,2.2-2.1c1.1-1.1,2.2-2.1,3.3-3.2c0.2-0.2,0.4-0.4,0.5-0.5   c0.5-0.5,1.1-1.1,1.7-1.6c0.4-0.4,0.7-0.7,1.1-1.1c0.2-0.2,0.4-0.3,0.6-0.5c1.2-1,2.4-2,3.6-2.9c1.4-1.1,2.8-2.3,4.2-3.4   c-9.8,10.1-19.6,20.2-29.3,30.4c0,0-0.1,0.1-0.1,0.1c0,0,0,0-0.1,0.1c0,0,0,0,0.1-0.1c2.7-2.7,5.5-5.4,8.2-8.1   c1.7-1.7,3.4-3.4,5.1-5.1c1-1,2-2.1,3-3.1c1.4-1.4,2.7-2.8,4-4.1c2.7-2.7,5.4-5.5,8.1-8.2c1.3-1.3,2.6-2.6,3.9-3.9   c0,0,0.1-0.1,0.2-0.2c0.1,0.2,0.2,0.4,0.3,0.6c0.1,0.2,0.1,0.4,0.1,0.6c0.1,0.5,0.2,1,0.3,1.5c0.5,4.4,1.2,10.9,1.3,11.4   c0.2,1.7,0.5,3.5,0.8,5.2c0.6,4,3.4,19.8,3.9,20.8c0.2,0.5,0.7,1.1,1.3,1.1c0.6,0.1,1.3-0.6,1.4-1.2c0.1-0.8-0.2-1.6-0.2-2.4   c0-2,0-4,0-6c0-0.6,0-1.2,0-1.8c0-1.1-0.1-2.2-0.2-3.3c-0.2-2.2-0.5-4.4-0.8-6.6c-0.1-0.6-0.4-4.1-0.4-4.6   c3.5,6.8,10.5,20.5,10.5,20.5c0.2,0.2,0.7,0.2,1.4,0c0.6-0.3,1.1-0.7,1-1c0,0,0,0,0,0c-2.8-6.9-5.6-13.9-8.4-20.7   c1.9,2.4,3.7,4.9,5.5,7.4c0.1,0.2,0.2,0.3,0.3,0.5c0.1,0.2,0.2,0.4,0.2,0.6c1.1,2.7,2.3,5.3,3.5,7.8c-1.5-2.6-2.8-5.3-4-8.1   c0,0,0,0,0,0c0.8,1.9,1.5,3.8,2.3,5.7c0.8,1.8,1.8,3.6,2.8,5.2c0.5,0.8,1,1.6,1.6,2.4c0.4,0.5,1,1.1,1.5,1.5   c0.5,0.4,1.4,0.8,2.3,0.6c0.5-0.1,0.9-0.4,1.2-0.8c0.3-0.4,0.5-0.9,0.4-1.5c0-0.6-0.2-1.1-0.4-1.6c0.6-0.2,1.1-0.5,1.7-0.8   c0.1,0,0.2,0,0.2-0.1c-1.1-2.3-2.3-4.7-3.3-7c-1.1-2.3-2.3-4.7-3.3-7c-1.1-2.3-2.2-4.7-3.3-7c-1.1-2.3-2.3-4.6-3.4-6.9   c0.4,0.2,0.9,0.3,1.3,0.4c4.9,10.2,9.9,20.3,14.9,30.4c0,0,0,0,0,0c-4.7-10.1-9.4-20.1-14.1-30.1c5.3,1.7,10.6,3.5,16,5.2   c0,0,0,0,0,0c-2.7-1-5.4-1.9-8.1-2.9c-2.7-1-5.4-1.9-8.1-2.8c0,0,0,0,0,0c-0.3-0.6-0.6-1.3-0.9-1.9c2.4,0.8,4.8,1.5,7.2,2.3   c0.3,0.1,0.7,0.2,1,0.3c3.5,1.1,7,2.1,10.5,3.1c0.7,0.2,1.4,0.4,2.1,0.7c1.4,0.4,2.7,0.9,4.1,1.3c1.4,0.5,2.7,0.9,4,1.4   c1,0.4,2,0.7,3,1.1c0.3,0.2,0.7,0.4,0.7,0.4c0.1,0,0.1,0,0.2,0h0c0,0,0,0,0,0c0.7,0,1.7-1.3,2.2-3c0.6-1.9,0.4-3.7-0.3-3.9   c0,0-0.4-0.1-0.5-0.1c0.2-0.8,0.1-1.5-0.4-1.6c0,0-11.4-3.7-16.9-5.4c-0.8-0.2-1.6-0.5-2.4-0.7c-3.1-1-6.3-2-9.4-2.9   c0.3,0,0.7,0,1,0c0.6,0.2,5,1.6,6.3,2c2.3,0.7,4.5,1.4,6.7,2.1c2.1,0.7,6.4,2.1,6.5,2.1c0,0,0.1,0,0.2,0c0.2-0.1,0.4-0.3,0.5-0.6   c0.1-0.4,0.1-0.7,0-0.9c0,0,0-0.1-0.1-0.1c-0.1,0-0.1,0-0.1,0c-0.6-0.2-1.2-0.4-1.8-0.6c-2.1-0.7-4.2-1.4-6.3-2.2   c-1.4-0.5-2.8-1-4.2-1.4c-0.5-0.2-1-0.3-1.5-0.5C113.8,75.3,128.5,74.3,122.9,73.3 M32,65.4c-0.8-0.2-1.6-0.5-2.4-0.7   c0.2,0,0.4,0.1,0.6,0.2c0.4,0.1,0.8,0.2,1.3,0.4c0.2,0.1,0.4,0.1,0.6,0.2C32.1,65.4,32,65.4,32,65.4 M67.6,36c0-0.3,0.1-0.7,0.1-1   c0.1-0.5,0.1-0.9,0.2-1.4c0.2,1.2,0.3,2.5,0.6,3.7c0.1,0.4,0.1,0.8,0.1,1.2c-0.3-0.6-0.6-1.2-0.9-1.9c0-0.1-0.1-0.2-0.1-0.3   C67.6,36.2,67.6,36.1,67.6,36 M67.2,39.1c0-0.2,0.1-0.6,0.1-0.8c0.4,0.8,0.8,1.7,1.2,2.5c0.1,0.1,0.1,0.2,0.2,0.3   c0,0.1,0,0.3,0,0.4c0,0.4,0,0.8,0.1,1.3c-0.5-1-1-2.1-1.5-3.2C67.2,39.4,67.2,39.3,67.2,39.1 M66.7,26.2c-0.1,0.7-0.2,1.5-0.2,2.2   c-0.1,1.1-0.2,2.1-0.3,3.1c0.2-1.8,0.5-3.7,0.7-5.5c0.1,0.3,0,0.8,0,1.2c-0.2,2-0.4,4.1-0.6,6.1c-0.1-0.2-0.2-0.4-0.3-0.6   c0-0.1-0.1-0.2-0.1-0.2c0-0.1,0-0.3,0.1-0.5c0.3-2.3,0.6-4.7,0.8-6.9C66.8,25.4,66.7,25.8,66.7,26.2 M62.7,29.6   c-0.1-0.5-0.1-1-0.2-1.5c1,2,1.9,4,2.9,5.9c0,0.3-0.1,0.7-0.1,1C64.4,33.3,63.5,31.4,62.7,29.6 M65,36.6c0,0.2-0.1,0.4-0.1,0.5   c-0.6-1.3-1.2-2.6-1.7-4c0-0.1-0.1-0.2-0.1-0.3c-0.1-0.2,0-0.4-0.1-0.6C63.7,33.7,64.3,35.2,65,36.6 M61.7,29.5   c0.3,0.5,0.5,1.1,0.7,1.6c0,0.2,0,0.3,0,0.4c-0.3-0.6-0.5-1.1-0.8-1.7C61.8,29.7,61.7,29.6,61.7,29.5 M62.1,27.2   c0,0.5,0.1,0.9,0.1,1.3c-0.3-0.5-0.5-1.1-0.8-1.7c0-0.4-0.1-0.9-0.1-1.3C61.5,26.1,61.8,26.7,62.1,27.2 M61,23.3   c0-0.4-0.1-0.8-0.1-1.3c0.3,0.6,0.6,1.2,0.8,1.8c0,0.3,0.1,0.7,0.1,1C61.5,24.4,61.3,23.8,61,23.3 M62,24.7c0.6,1.3,1.2,2.6,1.8,4   c0,0,0,0-0.1,0c-0.1-0.2-0.2-0.4-0.4-0.7c-0.3-0.6-0.7-1.3-1-2c-0.1-0.1-0.2-0.3-0.2-0.4c0-0.1,0-0.3-0.1-0.5   C62.1,25,62,24.8,62,24.7 M65.2,37.1c0.1,0.2,0.2,0.5,0.4,0.8c0,0.2-0.1,0.4-0.1,0.6c-0.1-0.3-0.2-0.5-0.4-0.8   C65.2,37.5,65.2,37.3,65.2,37.1 M65.5,35.8c0-0.1-0.1-0.1-0.1-0.2c0-0.1,0-0.4,0.1-0.5c0-0.2,0-0.4,0.1-0.5   c0.1,0.2,0.2,0.5,0.4,0.8c0,0.3-0.1,0.7-0.1,1C65.7,36.2,65.6,36,65.5,35.8 M49.1,2.9C49,2.9,49,2.7,49,2.7c0-0.1-0.1-0.1,0-0.2   c0,0,0.1,0.1,0.1,0.1c0.1,0.3,0.2,0.5,0.3,0.8c0.9,2.2,1.8,4.4,2.7,6.6C51.1,7.7,50.1,5.3,49.1,2.9 M52.4,7.1   c-0.4-0.8-0.8-1.7-1.2-2.6c-0.3-0.7-0.7-1.5-1-2.2c0,0,0-0.1-0.1-0.2C50.1,2,50.1,2,50.2,2c0.1,0.1,0.1,0.2,0.1,0.3   c1.1,2.3,2.2,4.6,3.2,7c1.5,3.2,3,6.4,4.5,9.7c0.3,0.7,0.7,1.4,1,2.1c0,0.1,0.1,0.2,0.2,0.3c0,0.1,0,0.2,0,0.3   c0,0.3,0.1,0.6,0.1,0.9C57,17.4,54.7,12.3,52.4,7.1 M59.7,10.3c0.1,0.1,0.1,0.3,0.1,0.5c0-0.4-0.1-0.8-0.1-1.2   c-0.2-1.6-0.4-3.1-0.5-4.7c-0.1-0.5,0-1.1,0.3-1.6c0.2-0.4,0.7-0.7,1.2-0.7c0.8,0,1.5,1.1,1.8,1.7c0.2,0.4,0.3,0.8,0.5,1.3   c0.1,0.4,0.2,0.9,0.4,1.3c0.5,1.8,1,3.6,1.4,5.5c0.4,1.9,0.8,3.8,1.1,5.8c0.3,1.7,0.5,3.4,0.8,5.2c0,0.2,0.1,0.5,0.1,0.7   c0,0.2,0,0.3-0.1,0.5c-0.3,2.4-0.6,5-0.9,7.4c-1.1-2.3-2.3-4.8-3.4-7.2c-0.1-0.2-0.2-0.3-0.2-0.5c-0.1-0.2-0.1-0.5-0.1-0.8   c-0.2-1.8-0.5-3.7-0.7-5.5c-0.3-2.2-0.6-4.3-0.8-6.5c0,0.5,0.1,1,0.2,1.5c0.4,3.5,0.8,7,1.2,10.6c-0.2-0.5-0.5-1-0.7-1.6   c0-0.1-0.1-0.2-0.1-0.2c0-0.1,0-0.2,0-0.4c-0.2-1.8-0.4-3.6-0.6-5.4C60,14.2,59.8,12.2,59.7,10.3 M54.6,24.5   c0.1,0.2,0.3,0.6,0.3,0.8c1.9,4.6,3.8,9.2,5.8,13.8c0.3,0.6,0.5,1.2,0.8,1.9c0,0.1,0.1,0.2,0.1,0.3c0,0.2,0,0.3,0.1,0.6   c-2.3-5.8-4.7-11.4-7-17.1C54.6,24.6,54.6,24.6,54.6,24.5C54.5,24.5,54.5,24.4,54.6,24.5 M57.7,70.3c0.2-0.2,0.4-0.5,0.7-0.7   c0.2,0.1,0.4,0.1,0.5,0.2c0,0,0,0.1-0.1,0.1c-0.2,0.3-0.5,0.5-0.8,0.8c-0.1-0.1-0.3-0.1-0.5-0.2C57.5,70.4,57.7,70.3,57.7,70.3    M57.2,70.3c0,0-0.1,0.1-0.1,0.1C57.1,70.3,57.2,70.3,57.2,70.3c0.2-0.3,0.5-0.5,0.7-0.8C57.8,69.7,57.5,70,57.2,70.3 M54.5,24.4   c0,0-0.1-0.1-0.1-0.2c0,0,0,0,0,0C54.5,24.3,54.5,24.4,54.5,24.4 M54.4,24.2C54.4,24.2,54.4,24.2,54.4,24.2   C54.4,24.2,54.4,24.2,54.4,24.2 M54.4,24.1C54.4,24.2,54.4,24.1,54.4,24.1C54.4,24.1,54.4,24.1,54.4,24.1 M54.3,24   C54.3,24,54.3,24,54.3,24C54.3,23.9,54.3,24,54.3,24 M54.3,23.9C54.3,23.9,54.3,23.9,54.3,23.9C54.3,23.9,54.3,23.9,54.3,23.9    M54.3,23.8C54.3,23.9,54.3,23.8,54.3,23.8C54.3,23.8,54.3,23.8,54.3,23.8 M54.2,23.7C54.2,23.7,54.2,23.7,54.2,23.7   C54.2,23.6,54.2,23.7,54.2,23.7 M54.2,23.7C54.2,23.8,54.2,23.7,54.2,23.7C54.2,23.7,54.2,23.7,54.2,23.7 M55.8,37.4   c0.8,1.6,1.4,3.4,2.1,5.1c-0.4-0.8-0.8-1.6-1.2-2.4c-0.4-0.8-0.7-1.7-1.1-2.5c-0.7-1.7-1.4-3.4-2.1-5.1   C54.3,34.1,55,35.7,55.8,37.4 M53.8,38.9c0.4,0.9,0.8,1.8,1.2,2.6c0.4,0.9,0.8,1.8,1.1,2.7c-1.4-2.3-2.8-4.8-4.1-7.2   c-0.2-0.4-0.5-0.8-0.7-1.2c-0.2-0.4-0.4-0.9-0.6-1.3c-1.5-3.6-3-7.1-4.4-10.8c0-0.1,0.1,0.1,0.1,0.1c0.8,1.6,1.6,3.3,2.4,4.9   c0.9,1.7,1.7,3.4,2.5,5.1C52.2,35.4,53,37.1,53.8,38.9 M45.5,3.9c0.5,1.2,1,2.5,1.5,3.8c0.1,0.2,0.1,0.4,0.2,0.5   c-0.5-1.5-1-2.9-1.6-4.4l0.1,0c1.4,3.2,2.8,6.3,4.2,9.6c-0.2,0.1-0.4,0.2-0.6,0.3c-0.5-1.2-1-2.4-1.5-3.6c-0.2-0.4-0.3-0.8-0.5-1.2   c-0.3-0.8-0.7-1.6-1.1-2.4C45.8,5.7,45.5,4.9,45.5,3.9L45.5,3.9z M44.9,4.1L44.9,4.1c1.3,3,2.6,6,3.9,9.1c0,0.1,0.1,0.3,0.2,0.5   c0,0,0,0.1,0,0.1c0,0.1,0,0-0.1,0.1c-0.1,0-0.1,0-0.1-0.1c-0.1-0.1-0.1-0.4-0.2-0.5C47.5,10.1,46.2,7.1,44.9,4.1 M42.5,22.5   c0.1,0.1,0.1,0.2,0.1,0.2c0.3,0.6,0.7,1.2,0.9,1.8c0.3,0.7,0.6,1.5,0.9,2.2C43.8,25.3,43.2,23.9,42.5,22.5 M43.8,24.7   C43.8,24.7,43.8,24.7,43.8,24.7c0.8,1.5,1.7,3.1,2.5,4.6c0.1,0.3,0.3,0.5,0.4,0.8c2.6,6.3,5.3,12.8,8.2,18.9c0.2,0.5,0.5,1,0.7,1.5   c0,0,0.1,0.1,0,0.1c-0.1,0-0.1-0.1-0.2-0.1C51.3,42.1,47.5,33.4,43.8,24.7 M45.9,53.3c0.4,0.2,0.9,0.4,1.3,0.6   c2.6,1.2,5.2,2.4,7.8,3.6l-2.2,1.4c-0.3-0.1-0.5-0.2-0.8-0.4c-0.9-0.4-1.8-0.8-2.8-1.2c-0.6-0.3-1.2-0.5-1.9-0.8   c-1.8-0.8-3.7-1.7-5.4-2.6c-0.4,0.1-0.9,0-1.3-0.2c-1.1-0.4-2.1-0.9-3-1.4c-0.1,0-0.2-0.1-0.2-0.1c-0.9-0.5-1.8-0.9-2.7-1.4   c-0.3-0.2-0.7-0.3-1-0.5c0,0,0,0,0,0c3.7,0.8,7.3,1.6,10.8,2.6C44.9,53,45.4,53.2,45.9,53.3 M54.3,61.3c-0.3-0.1-0.6-0.2-1-0.4   c-0.3-0.1-0.5-0.2-0.8-0.3c0.1,0,0.1,0,0.2-0.1C53.3,60.7,53.8,61,54.3,61.3 M36.9,47c0.1,0,0.2,0.1,0.4,0.1   c0.1,0.1,0.3,0.1,0.4,0.1c0.1,0,0.2,0.1,0.2,0.2c0.2,0.2,0.5,0.4,0.7,0.6c-0.7-0.3-1.5-0.7-2.2-1C36.6,47.1,36.8,47,36.9,47    M30.1,46.1c0.6,0.3,1.2,0.6,1.9,0.9c1.9,0.8,3.7,1.7,5.6,2.6c-3.1-0.6-6.2-1.2-9.4-1.8c-0.2,0-0.4-0.1-0.6-0.1   c-0.1,0-0.2-0.1-0.3-0.2l6.5,0.5c0,0-3.5-1.6-7.5-3.3c0.3,0.1,0.6,0.2,0.9,0.3c0.4,0.1,0.7,0.2,1,0.3   C28.9,45.5,29.5,45.8,30.1,46.1 M23,40.8c1.7,0.6,3.4,1.2,5,1.8c-0.2,0-0.4-0.1-0.7-0.2c-0.7-0.2-1.4-0.4-2.1-0.6c0.1,0,0,0,0.1,0   c-0.3-0.1-0.4-0.1-0.6-0.2c-0.3,0-0.6-0.1-0.8-0.1c-0.2-0.1-0.4-0.2-0.7-0.3c-0.1-0.1-0.2-0.1-0.3-0.1c-0.3-0.1-0.6-0.3-1-0.4   c-0.2-0.1-0.5-0.2-0.7-0.3C21.8,40.3,22.5,40.6,23,40.8 M33.5,53c0.5,0.3,1.2,0.6,1.7,1c-1.1-0.5-2.3-1-3.4-1.5   c-3.4-1.5-6.9-2.9-10.4-4.4c0.2,0,0.4,0.1,0.7,0.1c0,0,0,0,0,0l2.4,0.5c0.4,0.2,0.8,0.4,1.3,0.5c0.3,0.1,0.7,0.1,1.1,0.1   c0.3,0,0.7,0,1,0.1l2.7,1.8l0.3,0.1c0,0,0,0,0,0v0l5.8,2.4l6.3,2.9c-3.2-1.3-6.4-2.6-9.6-3.9C33.4,52.9,33.5,53,33.5,53 M37.5,63.5   c0.2,0,0.5,0.1,0.7,0.2c0.7,0.2,1.4,0.4,2.1,0.6c0,0,0,0-0.1,0c-0.5-0.1-0.9-0.2-1.4-0.4C38.3,63.8,37.9,63.6,37.5,63.5 M38.9,64   c3.5,1,7.1,2,10.6,3.1c0,0,0,0.1,0,0.1c-0.1,0.1-0.4,0.3-0.5,0.4C45.6,66.3,42.3,65.2,38.9,64C38.9,64,38.9,64,38.9,64 M42.5,69.1   c1.2,0.3,2.4,0.7,3.7,1c-0.1,0.1-0.1,0.1-0.2,0.2C44.8,69.9,43.6,69.5,42.5,69.1 M48.5,72.1c-4.2,3.4-8.3,6.7-12.5,10.1   c0,0,0,0,0,0c1.4-1.3,2.7-2.7,4.1-4c0.2-0.2,0.4-0.4,0.7-0.7c0.2-0.2,0.5-0.4,0.7-0.7c0.9-0.9,1.8-1.8,2.7-2.7   c0.7-0.7,1.4-1.3,2.1-2c0.2-0.2,0.5-0.4,0.7-0.6C47.5,71.7,48,71.8,48.5,72.1C48.6,72,48.5,72,48.5,72.1 M49.3,71.4   c-0.5-0.2-1.1-0.4-1.6-0.5c0-0.1,0.2-0.2,0.2-0.3c0.6,0.2,1.2,0.3,1.8,0.5C49.6,71.2,49.5,71.3,49.3,71.4 M48.2,62.8   c-4.7-1.5-9.4-2.9-14.1-4.5c6.3,1.9,12.6,3.8,18.8,5.8c-0.1,0.1-0.1,0.1-0.3,0.1c-0.3-0.1-0.6-0.2-0.9-0.3   C50.5,63.5,49.3,63.1,48.2,62.8 M50.7,68.1c0-0.1,0.1-0.1,0.1-0.1c0.1-0.1,0.3-0.3,0.4-0.4c0,0,0,0,0,0c0.7,0.2,1.4,0.4,2.1,0.6   c-0.3,0.2-0.5,0.4-0.8,0.6C51.9,68.5,51.3,68.3,50.7,68.1 M51.6,72.2c0.2-0.2,0.3-0.3,0.5-0.4c0.2,0.1,0.5,0.1,0.7,0.2   c-0.1,0.2-0.3,0.3-0.4,0.5C52.1,72.4,51.8,72.3,51.6,72.2 M27.1,110.1c1.3-1.1,2.6-2.2,3.9-3.3c4.4-3.8,8.7-7.6,13.1-11.4   c-0.3,0.5-0.7,1-1.1,1.6c-0.1,0.1-0.1,0.2-0.1,0.2c-0.1,0.1-0.2,0.2-0.3,0.3c-1.5,1.3-3.1,2.6-4.6,3.9c0.2-0.2,0.5-0.3,0.7-0.5   c-1,0.8-1.9,1.7-2.9,2.5c-3,2.4-6.1,4.8-9.1,7.2C26.7,110.4,26.9,110.2,27.1,110.1 M29,109c-1.3,1.1-2.6,2.2-3.9,3.3   c0,0-0.1,0.1-0.1,0.1c0-0.1,0-0.2,0-0.2c0-0.1,0.1-0.1,0.1-0.1c0.1-0.1,0.2-0.1,0.3-0.2c0.1-0.1,0.2-0.1,0.3-0.2   c1.3-1,2.7-2.1,4-3.2C29.4,108.7,29.2,108.8,29,109 M29.7,108.4C29.6,108.5,29.7,108.4,29.7,108.4 M38.3,102   c-1.1,0.9-2.2,1.8-3.3,2.7c-1.5,1.2-2.9,2.4-4.4,3.6c0.2-0.2,0.4-0.3,0.5-0.4c0.6-0.4,1.1-0.9,1.6-1.3c0.7-0.6,1.4-1.2,2.1-1.8   c0.7-0.6,1.4-1.3,2.1-1.8c0.7-0.6,1.5-1.2,2.3-1.7C39,101.4,38.6,101.7,38.3,102 M38.2,101.8c0-0.1,0.1-0.1,0.2-0.2   c0.5-0.4,1-0.9,1.6-1.3c0.5-0.4,1.1-0.9,1.6-1.3c0,0.1-0.2,0.2-0.3,0.3C40.3,100.1,39.2,101,38.2,101.8 M41.1,102.6   c0.2-0.3,0.4-0.6,0.7-0.9c0.1-0.1,0.1-0.2,0.2-0.3c0.1-0.1,0.2-0.1,0.3-0.2c0.6-0.5,1.3-1,1.9-1.5   C43.2,100.6,42.2,101.6,41.1,102.6 M43.4,84.6c-0.1,0.1-0.2,0.2-0.3,0.3c0,0,0.1-0.1,0.1-0.2c0.4-0.4,0.8-0.8,1.2-1.2   c0.2-0.2,0.5-0.4,0.7-0.7c0.9-0.9,1.8-1.8,2.7-2.8c1.1-1.2,2.2-2.3,3.3-3.5c0.2-0.2,0.5-0.5,0.7-0.7c0.2-0.2,0.4-0.5,0.7-0.7   c0.3-0.4,0.7-0.7,1-1c0.1-0.1,0.2-0.3,0.3-0.3c0,0,0.1,0,0.2,0.1c-0.6,0.7-1.3,1.4-1.9,2.1c0.7-0.7,1.4-1.4,2.1-2.1   c0.2,0.1,0.3,0.1,0.5,0.2c-0.7,0.8-1.4,1.4-2.1,2.2c0,0.1-0.1,0.1-0.1,0.2c0,0.1-0.1,0.1-0.1,0.2c-0.1,0.1-0.2,0.2-0.3,0.3   C49.1,79.4,46.2,82,43.4,84.6 M55.7,68.9c-0.2,0.2-0.5,0.5-0.7,0.7c-0.1,0-0.1,0-0.2-0.1c0.3-0.3,0.6-0.5,0.9-0.7c0,0,0,0,0,0   C55.8,68.8,55.7,68.9,55.7,68.9 M55.8,72.9c0,0.1-0.1,0.1-0.1,0.2c-0.1,0.1-0.3,0.3-0.4,0.4c-0.2,0-0.3-0.1-0.5-0.2   c-0.1,0,0,0,0-0.1c0.1-0.2,0.3-0.3,0.5-0.5C55.5,72.7,55.6,72.8,55.8,72.9 M54.9,72.6c0,0,0.1,0,0.1,0c-0.2,0.2-0.3,0.4-0.5,0.6   c-0.1,0-0.1,0-0.1,0c0-0.1,0.1-0.1,0.1-0.1C54.7,72.9,54.8,72.7,54.9,72.6 M50.1,91.1c-0.1,0.2-0.3,0.3-0.5,0.4   c-0.5,0.4-1,0.8-1.4,1.2c0.1-0.2,0.2-0.3,0.3-0.5c0-0.1,0.1-0.1,0.1-0.2c0.1-0.1,0.2-0.2,0.4-0.3C49.3,91.6,49.7,91.4,50.1,91.1    M55.8,87.4c-2.9,2.3-5.8,4.6-8.7,6.9c0.2-0.3,0.4-0.6,0.7-0.8c0.9-0.8,1.9-1.7,2.9-2.5c0.3-0.3,0.7-0.6,1.1-0.9   c1.6-1,3.1-2.1,4.6-3.1C56.1,87.1,55.9,87.2,55.8,87.4 M56.7,65.4c-0.8-0.2-1.6-0.5-2.3-0.7c-0.1,0,0.1-0.1,0.1-0.1   C55.3,64.8,56.1,65.1,56.7,65.4C56.8,65.3,56.8,65.4,56.7,65.4 M56.8,60.5c0,0-0.2-0.1-0.3-0.1c-0.7-0.2-1.3-0.4-2-0.7   c0.7-0.3,1.5-0.7,2.1-1c0.2,0.4,0.4,0.9,0.6,1.3c0,0.1-0.1,0.1-0.2,0.2C57,60.3,56.9,60.4,56.8,60.5 M56.9,84.6   C56.9,84.6,56.9,84.6,56.9,84.6c0.3-0.3,0.5-0.5,0.8-0.7c0.7-0.6,1.5-1.2,2.3-1.8c-0.2,0.2-0.3,0.3-0.5,0.5   c1.9-1.6,3.9-3.3,5.8-4.9c0.3,0.1,0.5,0.2,0.8,0.3C63.1,80.2,60,82.4,56.9,84.6 M67.6,76.6c-0.3,0.3-0.5,0.6-0.8,0.8   c-0.3-0.1-0.5-0.2-0.8-0.3c0.3-0.3,0.7-0.6,1-0.9c0.2,0.1,0.5,0.1,0.7,0.2C67.7,76.5,67.6,76.5,67.6,76.6 M67.1,42   c0-0.1-0.1-0.2-0.1-0.3c0-0.1,0-0.2,0-0.4c0-0.1,0-0.3,0-0.4c0.7,1.4,1.3,2.8,1.9,4.1c0,0.5,0.1,1,0.1,1.5   C68.4,45,67.7,43.5,67.1,42 M74.3,85.2c0,0.5,0,1,0,1.5c-0.8-1.5-1.5-3-2.3-4.5c0.1,0.1,0.2,0.2,0.3,0.4   C73,83.4,73.7,84.3,74.3,85.2 M72.1,77.8c0.1,0.2,0.2,0.5,0.3,0.7c-0.2-0.3-0.4-0.5-0.6-0.8C71.9,77.8,72,77.8,72.1,77.8    M70.6,44.2c0.2,0.4,0.4,0.9,0.7,1.4c0,0.1,0,0.3,0,0.5c-0.2-0.5-0.4-1-0.7-1.5C70.6,44.4,70.6,44.3,70.6,44.2 M70.9,47.2   c-0.1-0.1-0.2-0.3-0.2-0.4c0-0.1,0-0.3,0-0.5c0-0.4,0-0.9-0.1-1.3c0.1,0.3,0.3,0.7,0.5,1c0.1,0.1,0.2,0.3,0.2,0.4   c0,0.2,0,0.5,0,0.7c0,0.1,0,0.2,0,0.2c0,0.1-0.2,0.2-0.3,0.2C71,47.5,71,47.3,70.9,47.2 M71.1,80.9c0.1,0,0.1,0.1,0.2,0.2   c0,0.1,0.1,0.1,0.2,0.2c0,0.1,0,0.2,0.1,0.2c0.1,0.2,0.2,0.5,0.3,0.7C71.5,81.8,71.3,81.4,71.1,80.9 M73,89.9   c-0.2-0.4-0.6-1.4-1-2.7c-0.1-0.5-0.2-0.9-0.3-1.4c0.8,1.4,1.6,3.1,2.4,4.6c0.1,0.2,0.2,0.4,0.3,0.7c0,0,0,0,0,0c0,0.2,0,0.5,0,0.7   c0,0.3,0,0.6,0,0.9C73.9,91.6,73.3,90.4,73,89.9 M92.3,109.3c0.2,0.3,0.5,0.7,0.7,1c0.7,0.9,1.4,1.8,2,2.7c0.3,0.5,0.7,0.9,0.9,1.5   c0,0.1-0.1-0.1-0.1-0.1c-0.7-0.8-1.4-1.6-2-2.4c-0.7-0.9-1.2-2-1.8-3C92.1,109.1,92.2,109.2,92.3,109.3 M83.1,73   c1.1,0.3,2.3,0.6,3.4,0.9L86.4,74C85.3,73.7,84.2,73.3,83.1,73 M84.8,78.5c-0.5-0.1-0.9-0.3-1.4-0.4c-0.2-0.4-0.4-0.7-0.6-1.1   c0.5,0.2,1,0.3,1.5,0.4C84.5,77.8,84.7,78.1,84.8,78.5 M85,71.2C85,71.2,85.1,71.2,85,71.2c-1.1-0.3-2.2-0.7-3.3-1   c-0.1-0.2-0.2-0.4-0.3-0.6c0.2,0,0.3,0.1,0.4,0.2C82.9,70.3,84,70.7,85,71.2 M82.7,65.6c-0.3,0.3-0.6,0.5-0.9,0.8   c-0.8-0.4-1.6-0.8-2.5-1.1c-0.3-0.6-0.5-1.2-0.8-1.7c0.1-0.2,0.3-0.3,0.5-0.4c1.5,0.6,3.1,1.2,4.6,1.7   C83.4,65.1,83.1,65.3,82.7,65.6 M80.7,69.9c-0.3-0.1-0.7-0.2-1-0.3c0.2-0.2,0.3-0.3,0.5-0.5c0,0,0.1,0,0.1,0   C80.4,69.3,80.6,69.6,80.7,69.9 M79.4,68.6c-0.1,0.1-0.2,0.2-0.4,0.3c0,0-0.1,0.1-0.1,0.1c-0.1-0.3-0.2-0.5-0.3-0.8   C78.8,68.4,79.1,68.5,79.4,68.6 M85.1,63.5c-1.6-0.5-3.2-1.1-4.7-1.6c-0.1,0,0-0.1,0.1-0.1c0.1,0,0.1-0.1,0.2-0.1   c1.5,0.6,3.1,1.1,4.6,1.7C85.2,63.4,85.1,63.5,85.1,63.5 M90.9,65.1c3.3,1.1,9.5,3.3,12.9,4.4c0.1,0,0.2,0.1,0.3,0.1   c0.1,0,0.2,0,0.3,0.1c-0.1,0.1-0.3,0.1-0.4,0c-0.1,0-0.2-0.1-0.2-0.1C100.4,68.5,94.2,66.3,90.9,65.1   C90.9,65.1,90.9,65.1,90.9,65.1 M102.7,69.6c0.1,0,0.3,0.1,0.4,0.1c0.3,0.1,0.7,0.3,1.1,0.4c0.1,0,0.2,0,0.2,0.1   c-1.3-0.5-5.6-1.9-6.8-2.4c-3.9-1.4-7.7-2.7-11.6-4.1c0-0.1,0.1-0.1,0.2-0.1C90.6,65.3,98.1,68,102.7,69.6 M113.1,40.2   c-0.2,0.2-0.5,0.4-0.8,0.6c-2,1.5-3.9,3-5.8,4.5c-4.4,3.5-8.6,7.1-12.8,10.8c-2,1.8-4.1,3.5-6.1,5.3c-0.1,0.1-0.1,0.1-0.2,0.1   c-1.6-0.5-3.1-1.1-4.7-1.6c0,0,0-0.1,0.1-0.1c0.2-0.2,0.5-0.4,0.7-0.6c0.8-0.7,1.7-1.5,2.5-2.2c0.6-0.5,1.1-1,1.7-1.5   c0.3-0.2,0.5-0.5,0.8-0.7c1.4-1.2,2.9-2.4,4.3-3.5c0.3-0.2,0.6-0.4,1-0.6C100,47.1,106.5,43.7,113.1,40.2 M115.4,37.1   c-2.2,1.2-4.4,2.3-6.6,3.5c-0.3,0.2-0.6,0.3-0.9,0.5c-1.9,1-3.8,2-5.6,3c0.1-0.1,0.2-0.2,0.4-0.3c1.9-1.3,3.9-2.4,5.9-3.5   c0.6-0.3,1.1-0.6,1.7-0.8c0.6-0.3,1.1-0.5,1.7-0.8C113.1,38.1,114.2,37.6,115.4,37.1C115.4,37,115.4,37.1,115.4,37.1 M119.7,29.9   c0.2,0,0.4-0.1,0.6-0.1c0.4-0.1,0.8-0.1,1.2,0c0.1,0,0.2,0,0.2,0.1c0.1,0,0.2,0,0.3,0c0.1,0,0.3,0.2,0.4,0.3   c0.3,0.2,0.5,0.5,0.7,0.8c0.1,0.2,0.2,0.3,0.2,0.5c0,0.2,0,0.5,0,0.7c-0.2,1.3-1.3,1.9-2.3,2.4c-0.1,0-0.2,0.1-0.2,0.1   c-0.1,0-0.2,0.1-0.3,0.1c-0.1,0.1-0.4,0.2-0.4,0.2c-0.1,0-0.2-0.1-0.4-0.1c0.2-0.1,0.5-0.2,0.6-0.3c0.9-0.5,1.6-1,2.3-1.6   c0.3-0.3,0.5-0.8,0.5-1.3c0-0.6-0.4-1.1-0.7-1.4c-0.1-0.1-0.2-0.3-0.4-0.3c-0.2-0.1-0.4-0.2-0.6-0.2c-0.6-0.1-1.3,0-1.8,0.1   c-1.1,0.2-2.2,0.5-3.2,0.8c-1.4,0.4-2.7,0.9-4,1.4C114.6,31.3,117.2,30.4,119.7,29.9 M108.7,36.9c0.1-0.1,0.3-0.3,0.3-0.3   c0,0-0.1-0.1-0.2-0.3c0.8-0.5,1.7-1.1,2.6-1.5c0.9-0.4,1.9-0.7,2.9-1.1c1.5-0.5,3-1,4.6-1.5c0.4-0.1,0.7-0.2,1.1-0.3   c0.2,0,0.4,0,0.5-0.1c0,0,0,0,0,0.1c-0.3,0.3-0.8,0.5-1.2,0.7c-0.9,0.5-1.8,0.9-2.7,1.3c-0.5,0.2-1,0.4-1.5,0.6   c-0.5,0.2-1,0.4-1.5,0.6c-1.4,0.6-4,1.8-4.2,2c-1,0.5-2.1,1.1-3,1.6c0.3-0.3,0.8-0.7,1.3-1.1C108.1,37.5,108.4,37.2,108.7,36.9    M79.7,55.1c0.4-0.3,0.8-0.7,1.1-0.9c1.5-1.3,2.9-2.5,4.4-3.7c0.4-0.3,0.7-0.6,1.1-0.9c1.1-0.9,2.1-1.9,3.2-2.9   c2.8-2.6,5.6-5.1,8.5-7.7c1.4-1.3,2.8-2.6,4.3-3.8c2.1-1.9,4.3-3.8,6.5-5.6c0.8-0.6,1.6-1.2,2.4-1.7c-1.2,2.1-3,3.7-4.8,5.2   c-0.4,0.3-0.7,0.6-1.1,0.9c-1.3,1.2-2.7,2.3-4.1,3.5c0,0-0.1,0.1-0.1,0.1c-0.7,0.6-1.5,1.3-2.3,2c-1.4,1.2-2.9,2.4-4.4,3.7   c-1.4,1.3-2.9,2.5-4.3,3.7c-0.7,0.6-1.4,1.2-2.2,1.9c-1.4,1.2-2.9,2.5-4.3,3.7c-2.1,1.9-4.4,3.6-6.6,5.5c-0.1,0-0.4-0.1-0.5-0.2   c0,0,0,0,0-0.1c0-0.1,0.2-0.1,0.2-0.2C77.7,56.8,78.7,55.9,79.7,55.1 M78.2,64.7c-0.2-0.1-0.5-0.2-0.7-0.3c0.1-0.1,0.3-0.2,0.4-0.3   c0,0,0,0,0,0C78,64.3,78.1,64.5,78.2,64.7 M79.7,51.7c-1.1,1.1-2.1,2.1-3.1,3.2c0,0-0.1,0.1-0.1,0.1c0,0,0,0.1-0.1,0.1   c0,0-0.1-0.1,0-0.1c0,0,0.1-0.1,0.1-0.1c2.2-2.1,4.4-4.3,6.6-6.5C82,49.4,80.8,50.6,79.7,51.7 M75.1,46.7c0-0.1,0-0.3,0-0.4   c0-0.1,0.2-0.2,0.3-0.3c0.3-0.3,0.6-0.6,0.9-0.8c1.2-1.1,2.5-2.2,3.7-3.3c0.4-0.4,0.8-0.7,1.2-1.1c0.2-0.2,0.4-0.4,0.6-0.5   c1-0.9,2.1-1.8,3.1-2.7c-1.6,1.7-3.3,3.5-4.9,5.2c-1.2,1.3-2.5,2.6-3.7,3.9c-0.4,0.4-0.8,0.9-1.2,1.3   C75.1,47.6,75.1,47.1,75.1,46.7 M75.2,52.5c0-0.1,0.3-0.4,0.5-0.5c1.1-1.1,2.1-2.3,3.2-3.4c0.5-0.5,0.9-1,1.4-1.5   c0.7-0.8,1.5-1.6,2.3-2.4c1.1-1.2,2.1-2.3,3.2-3.4c0.2-0.2,0.3-0.3,0.5-0.5c1.2-1.3,2.5-2.5,3.8-3.8c0.6-0.6,1.3-1.2,1.9-1.9   c1.9-1.9,3.8-3.7,5.8-5.5c0.3-0.3,0.7-0.6,1-0.9c1-0.9,2-1.8,3-2.7c0.7-0.6,1.4-1.2,2.1-1.7c0.7-0.6,1.4-1.1,2.1-1.7c0,0,0,0,0,0   c-3.7,3.9-7.5,7.7-11.3,11.6c-0.9,1-1.9,1.9-2.8,2.9c-0.2,0.2-0.3,0.3-0.5,0.5c-0.1,0.1-0.1,0.2-0.2,0.3c-4.5,4.5-9,9-13.6,13.6   c-0.5,0.5-1,0.9-1.4,1.4c-0.1,0.1-0.2,0.2-0.4,0.4c0,0-0.1,0.1-0.1,0.1C75.4,52.9,75.2,52.8,75.2,52.5   C75.2,52.5,75.2,52.5,75.2,52.5 M76.2,79.4l1.1,1.6c-0.4-0.1-0.7-0.2-1.1-0.4C76.2,80.2,76.2,79.8,76.2,79.4 M82,101.7   c0,0.1-0.1-0.1-0.1-0.1c-0.4-0.8-0.9-1.7-1.3-2.6c-0.5-0.9-0.9-1.8-1.4-2.7c-0.9-1.8-1.9-3.6-2.8-5.4c0-0.9-0.1-1.9-0.1-2.8   C78.3,92.5,80.2,97.1,82,101.7 M84.4,94.9c-0.6-0.8-1.2-1.6-1.8-2.4c-1.7-2.4-3.5-4.7-5.2-7.1c-0.1-0.2-0.3-0.5-0.4-0.8   c-0.2-0.5-0.4-1-0.6-1.6c0-0.1-0.1-0.2-0.1-0.3c0-0.2,0-0.5,0-0.7c0-0.2,0-0.5,0-0.7c0.6,0.2,1.1,0.4,1.7,0.5l4.9,7.1   C83.3,90.9,83.8,92.9,84.4,94.9C84.4,94.9,84.4,94.9,84.4,94.9C84.4,94.9,84.4,94.9,84.4,94.9 M83.9,79C83.9,79,83.9,79,83.9,79   C83.8,78.9,83.9,78.9,83.9,79c0.3,0,0.7,0.1,1.1,0.2c0.1,0,0.3,0.1,0.3,0.2C84.8,79.3,84.4,79.2,83.9,79 M91.3,103.8   c-1.3-1.6-2.6-3.3-3.9-4.9c-0.1-0.1-0.2-0.2-0.3-0.3c-0.1-0.1-0.1-0.3-0.2-0.5c-0.6-1.5-1.1-3-1.6-4.5L91.3,103.8z M87.8,84.6   c-0.4-0.1-0.9-0.3-1.3-0.4c-0.3-0.6-0.6-1.2-0.9-1.8c0.5,0.1,0.9,0.3,1.3,0.4C87.2,83.4,87.5,84,87.8,84.6 M121.2,88.1   c0.1-0.1,0.2-0.1,0.3-0.1c0.1,0.2,0.1,0.5,0,0.8c0,0.2-0.1,0.5-0.3,0.6c-0.1,0-0.4,0-0.6-0.1c-2.8-0.7-5.5-1.5-8.3-2.2   c-2.2-0.6-4.4-1.2-6.6-1.8c-5.8-1.6-11.7-3.3-17.5-4.9c-0.6-0.2-1.2-0.3-1.8-0.5c0,0,0,0-0.1,0c-0.2-0.1-0.4,0-0.4-0.2c0,0,0,0,0,0   c0.7,0.2,1.4,0.4,2.2,0.6c2.2,0.6,4.3,1.2,6.5,1.7c2.9,0.8,5.8,1.5,8.7,2.3c2.9,0.7,5.8,1.5,8.7,2.3c0.7,0.2,1.4,0.4,2.1,0.6   c1.1,0.3,2.2,0.6,3.3,0.8c0.4,0.1,0.7,0.2,1.1,0.3c0.7,0.2,1.4,0.5,2.1,0.7c0.1-0.1,0.1-0.2,0.1-0.3c0-0.2-0.2-0.2-0.4-0.2   C120.8,88.4,121,88.3,121.2,88.1 M120.4,88.3C120.4,88.3,120.4,88.3,120.4,88.3c0.1,0,0.1,0,0.1,0.1   C120.5,88.3,120.4,88.3,120.4,88.3C120.4,88.3,120.4,88.3,120.4,88.3 M115.9,86.9c0.3,0.1,0.4,0.1,0.6,0.2c1.3,0.4,2.6,0.8,3.9,1.2   c-0.2,0-0.4,0-0.7-0.1c-0.1,0-0.3-0.1-0.4-0.2c-1-0.4-2.1-0.7-3.2-1c0.3,0.1,0.6,0.2,0.8,0.3c-0.3,0-0.5-0.1-0.8-0.2   c-1.9-0.6-3.8-1.2-5.6-1.7c-2.1-0.7-4.3-1.3-6.4-2C108,84.5,111.9,85.7,115.9,86.9 M93.9,80.3c0.3,0.1,0.6,0.2,0.8,0.3   c1.4,0.5,2.8,1,4.2,1.4c4.5,1.4,9.1,2.8,13.6,4.3c-8.9-2.4-17.8-4.9-26.7-7.4c-0.1-0.1-0.1-0.2-0.1-0.3c-0.1-0.3-0.3-0.5-0.4-0.8   c1.2,0.3,2.3,0.7,3.5,1C90.4,79.3,92.1,79.7,93.9,80.3 M97.9,74.5c0-0.2-0.1-0.4-0.2-0.6c6.4-0.2,17.3-0.5,19.5-0.2   C119.4,73.9,105.5,74.3,97.9,74.5"/>
	<path class="st2" d="M170.2,51c6.6,2,11,5.1,11,12c0,8.2-7.6,13.6-15.7,13.6c-7,0-13.5-2.9-17.4-7.9l5-5.9   c3.8,4.5,7.9,6.5,12.6,6.5c3.8,0,7.3-1.8,7.3-5.4c0-2.8-1.5-4.3-5.1-5.3l-7.3-2.2c-6.1-1.8-10.3-4.9-10.3-11.5   c0-7,6.3-12.9,15-12.9c6.4,0,11.7,2.4,15.2,6.1l-4.7,6.2c-3-3.1-6.5-5-10.6-5c-3.9,0-6.6,2.1-6.6,5c0,2.5,1.7,3.8,4.7,4.7L170.2,51   z"/>
	<path class="st2" d="M193.8,51.3h0.1c1.4-2.4,4.6-4.5,8.6-4.5c7.6,0,13.6,6.1,13.6,14.9c0,8.7-6,14.9-13.6,14.9   c-4,0-7.3-2.2-8.6-4.6h-0.1v15.1h-7.9V47.5h7.9V51.3z M201,69.5c4.4,0,7.4-3.7,7.4-7.9c0-4.1-3-7.9-7.4-7.9c-4.4,0-7.4,3.7-7.4,7.9   C193.6,65.8,196.5,69.5,201,69.5"/>
	<path class="st2" d="M230.9,58.8l6.7-0.5c0-2.9-2-4.7-6-4.7c-3,0-6.1,1.4-8.2,2.9l-2.7-5.8c2.5-1.8,7.3-3.9,12.3-3.9   c7.9,0,12.3,4.7,12.3,11.9v17.1h-7.6v-3.6h-0.1c-0.9,1.8-4.2,4.3-8.3,4.3c-5.6,0-9.9-3.1-9.9-8.7C219.4,62.2,225,59.3,230.9,58.8    M237.6,63.5l-5.3,0.5c-3.4,0.3-5.6,1.2-5.6,3.5c0,2,2,3.1,4.3,3.1c3.6,0,6.6-2.3,6.6-6.3V63.5z"/>
	<path class="st2" d="M259.2,61.4v14.4h-7.9V47.5h7.9v4.8h0.1c1.1-3,4-5.3,7.3-5.3c0.6,0,1.4,0.1,1.9,0.2v8.2   c-0.8-0.3-1.9-0.5-3.1-0.5C261.7,54.8,259.2,57.4,259.2,61.4"/>
	<polygon class="st2" points="281.1,61.4 281.1,75.8 273.2,75.8 273.2,32.7 281.1,32.7 281.1,59.9 292.1,47.5 301.3,47.5    289.5,60.5 301.7,75.8 292.1,75.8  "/>
	<g>
		<path class="st2" d="M319.9,60.5h11.2v-2.6h-7.3l7-7.5v-2.9h-10.5v2.6h6.7l-7,7.5V60.5z M306,60.5h3.2v-7.1c0-0.4,0.1-0.9,0.2-1.3    c0.1-0.4,0.3-0.8,0.6-1.1c0.2-0.3,0.6-0.6,0.9-0.8c0.4-0.2,0.8-0.3,1.4-0.3c0.5,0,0.9,0.1,1.3,0.3c0.3,0.2,0.6,0.5,0.7,0.8    c0.2,0.3,0.3,0.7,0.4,1.1c0.1,0.4,0.1,0.8,0.1,1.2v7.2h3.2v-8.1c0-0.7-0.1-1.3-0.3-1.9c-0.2-0.6-0.5-1.2-0.9-1.7    c-0.4-0.5-0.9-0.9-1.5-1.2c-0.6-0.3-1.3-0.4-2.2-0.4c-1,0-1.8,0.2-2.5,0.7c-0.7,0.5-1.2,1.1-1.5,1.7h-0.1v-2.1H306V60.5z"/>
	</g>
</g>
</svg>