<svg viewBox="0 0 205 30" fill="none" xmlns="http://www.w3.org/2000/svg" class="site-nav__logo" data-v-ebcb068f="">
    <title>WellingtonNZ</title>
    <path
        d="M6.102 23.625h6.101l3.223-12.875h.125l3.13 12.875h6.101l4.443-18.094L30.852 5V1.969h-8.041V5l2.002.531L22.53 15.97h-.156l-3.63-14h-4.506l-3.63 14.437h-.156L8.073 5.531 9.919 5V1.969H0V5l1.565.531 4.537 18.094zM38.592 24.031c3.191 0 5.163-.843 6.352-1.656v-3.031c-1.19.375-2.597.781-4.788.781-2.66 0-4.224-1.031-4.537-3.969h10.107c0-7-2.44-9.562-7.604-9.562-5.069 0-8.448 3.187-8.448 8.656 0 5.625 3.066 8.781 8.918 8.781zM35.619 13.5c.22-2.781 1.158-3.563 2.44-3.563 1.221 0 2.097.782 2.097 3.376l-4.537.187zM46.754 23.625h9.356v-2.844l-1.784-.437V.469l-.5-.25-7.229.719v2.874l2.003.532v16l-1.846.437v2.844zM56.96 23.625h9.356v-2.844l-1.784-.437V.469l-.5-.25-7.228.719v2.874l2.002.532v16l-1.846.437v2.844zM67.166 23.625h9.23v-2.844l-1.689-.437v-13.5l-.532-.219-7.165.719v2.906l1.94.5v9.594l-1.784.437v2.844zm4.506-18.031c1.752 0 3.16-1.063 3.16-2.813 0-1.719-1.408-2.781-3.16-2.781-1.72 0-3.16 1.063-3.16 2.781 0 1.75 1.44 2.813 3.16 2.813zM77.25 23.625h8.855v-2.844l-1.314-.343v-9.094c.657-.219 1.283-.406 2.097-.406 1.314 0 1.94.437 1.94 1.78v7.72l-1.315.343v2.844h8.73v-2.844l-1.658-.437v-9.625c0-2.969-1.783-4.125-4.35-4.125-2.315 0-3.91.812-5.507 2.031h-.187V6.844l-.5-.219-6.885.719v2.906l1.878.5v9.594l-1.784.437v2.844zM104.071 30c6.822 0 9.638-2.906 9.638-6.375 0-3.313-2.284-4.563-5.163-4.563h-5.413c-.877 0-1.158-.437-1.158-.843 0-.282.125-.657.375-.938.72.157 1.471.219 2.316.219 4.443 0 7.353-2 7.353-5.625 0-.875-.282-1.563-.72-2.219l2.253.094V6.375l-5.35.75c-.97-.344-2.159-.531-3.536-.531-4.35 0-7.353 2-7.353 5.625 0 1.937 1.032 3.375 2.565 4.219-1.345.875-2.41 2.187-2.41 3.53 0 1.345.72 2.25 2.191 2.688v.157c-1.877.5-3.504 1.53-3.504 3.375 0 2.218 2.597 3.812 7.916 3.812zm.438-3.188c-2.253 0-3.066-.656-3.066-1.562 0-.781.438-1.25 1.095-1.531h3.943c1.439 0 1.971.281 1.971 1.187 0 1.032-1.033 1.907-3.943 1.907zm.157-12.093c-1.095 0-1.94-.656-1.94-2.719 0-1.969.813-2.594 1.94-2.594 1.126 0 2.002.5 2.002 2.688 0 1.969-.876 2.625-2.002 2.625zM121.324 23.969c1.814 0 3.285-.438 4.036-.907v-2.968a5.851 5.851 0 0 1-1.533.218c-1.377 0-2.034-.437-2.034-1.906v-8.062h3.379V6.938h-3.379V3.03h-4.506l-.72 3.875-2.284.844v2.594h1.784v9c0 3.531 1.877 4.625 5.257 4.625zM135.086 20.594c-1.595 0-2.659-1.094-2.659-5.407 0-4.218 1.032-5.187 2.565-5.187 1.565 0 2.629 1.094 2.629 5.406 0 4.094-1.001 5.188-2.535 5.188zm-.031 3.437c4.788 0 8.636-3.125 8.636-8.843 0-5.47-3.098-8.594-8.667-8.594-4.819 0-8.636 3.062-8.636 8.812 0 5.281 3.066 8.625 8.667 8.625zM144.629 23.625h8.855v-2.844l-1.314-.343v-9.094c.657-.219 1.283-.406 2.096-.406 1.314 0 1.94.437 1.94 1.78v7.72l-1.314.343v2.844h8.73v-2.844l-1.658-.437v-9.625c0-2.969-1.784-4.125-4.35-4.125-2.315 0-3.911.812-5.507 2.031h-.188V6.844l-.5-.219-6.884.719v2.906l1.877.5v9.594l-1.783.437v2.844zM164.524 23.625h8.511v-3.031l-2.222-.5V9.187h.157l8.104 14.438h5.632V5.531L186.615 5V1.969h-8.23V5l2.191.563v8.687h-.157l-7.04-12.281h-8.855V5l2.159.531v14.532l-2.159.53v3.032zM187.29 23.625h17.366l.344-7.656h-3.598l-1.44 4.062h-5.476v-.125l10.389-14.218v-3.72H188.04l-.375 7.063h3.692l1.315-3.469h5.006v.125l-10.388 14.22v3.718z"
        fill="#000000">
    </path>
</svg>