<?xml version="1.0" encoding="UTF-8" standalone="no"?>
<svg
   xmlns:dc="http://purl.org/dc/elements/1.1/"
   xmlns:cc="http://creativecommons.org/ns#"
   xmlns:rdf="http://www.w3.org/1999/02/22-rdf-syntax-ns#"
   xmlns:svg="http://www.w3.org/2000/svg"
   xmlns="http://www.w3.org/2000/svg"
   xmlns:sodipodi="http://sodipodi.sourceforge.net/DTD/sodipodi-0.dtd"
   xmlns:inkscape="http://www.inkscape.org/namespaces/inkscape"
   sodipodi:docname="logo-new.svg"
   inkscape:version="1.0 (4035a4fb49, 2020-05-01)"
   id="svg2327"
   version="1.1"
   viewBox="0 0 3000 3000"
   height="768"
   width="768">
  <style>
    .dot {
      fill: #bab11f;
      fill-opacity: 1;
    }
  </style>
  <g
     inkscape:label="new"
     id="layer2"
     inkscape:groupmode="layer">
    <g
       transform="matrix(0.88829071,0,0,0.88829076,167.56393,136.23485)"
       class="dot"
       id="g7850">
      <circle r="36" class="dot" cx="50" cy="1050" />
      <circle r="36" class="dot" cx="50" cy="1150" />
      <circle r="36" class="dot" cx="50" cy="1250" />
      <circle r="36" class="dot" cx="50" cy="1350" />
      <circle r="36" class="dot" cx="50" cy="1450" />
      <circle r="36" class="dot" cx="150" cy="950" />
      <circle r="36" class="dot" cx="150" cy="1050" />
      <circle r="36" class="dot" cx="150" cy="1150" />
      <circle r="36" class="dot" cx="150" cy="1250" />
      <circle r="36" class="dot" cx="150" cy="1350" />
      <circle r="36" class="dot" cx="150" cy="1450" />
      <circle r="36" class="dot" cx="150" cy="1550" />
      <circle r="36" class="dot" cx="250" cy="950" />
      <circle r="36" class="dot" cx="250" cy="1050" />
      <circle r="36" class="dot" cx="250" cy="1150" />
      <circle r="36" class="dot" cx="250" cy="1250" />
      <circle r="36" class="dot" cx="250" cy="1350" />
      <circle r="36" class="dot" cx="250" cy="1450" />
      <circle r="36" class="dot" cx="250" cy="1550" />
      <circle r="36" class="dot" cx="250" cy="1650" />
      <circle r="36" class="dot" cx="250" cy="1750" />
      <circle r="36" class="dot" cx="250" cy="1850" />
      <circle r="36" class="dot" cx="250" cy="1950" />
      <circle r="36" class="dot" cx="250" cy="2050" />
      <circle r="36" class="dot" cx="350" cy="950" />
      <circle r="36" class="dot" cx="350" cy="1050" />
      <circle r="36" class="dot" cx="350" cy="1150" />
      <circle r="36" class="dot" cx="350" cy="1250" />
      <circle r="36" class="dot" cx="350" cy="1350" />
      <circle r="36" class="dot" cx="350" cy="1450" />
      <circle r="36" class="dot" cx="350" cy="1550" />
      <circle r="36" class="dot" cx="350" cy="1650" />
      <circle r="36" class="dot" cx="350" cy="1750" />
      <circle r="36" class="dot" cx="350" cy="1850" />
      <circle r="36" class="dot" cx="350" cy="1950" />
      <circle r="36" class="dot" cx="350" cy="2050" />
      <circle r="36" class="dot" cx="350" cy="2150" />
      <circle r="36" class="dot" cx="450" cy="950" />
      <circle r="36" class="dot" cx="450" cy="1050" />
      <circle r="36" class="dot" cx="450" cy="1150" />
      <circle r="36" class="dot" cx="450" cy="1250" />
      <circle r="36" class="dot" cx="450" cy="1350" />
      <circle r="36" class="dot" cx="450" cy="1450" />
      <circle r="36" class="dot" cx="450" cy="1550" />
      <circle r="36" class="dot" cx="450" cy="1650" />
      <circle r="36" class="dot" cx="450" cy="1750" />
      <circle r="36" class="dot" cx="450" cy="1850" />
      <circle r="36" class="dot" cx="450" cy="1950" />
      <circle r="36" class="dot" cx="450" cy="2050" />
      <circle r="36" class="dot" cx="450" cy="2150" />
      <circle r="36" class="dot" cx="550" cy="850" />
      <circle r="36" class="dot" cx="550" cy="950" />
      <circle r="36" class="dot" cx="550" cy="1050" />
      <circle r="36" class="dot" cx="550" cy="1150" />
      <circle r="36" class="dot" cx="550" cy="1250" />
      <circle r="36" class="dot" cx="550" cy="1350" />
      <circle r="36" class="dot" cx="550" cy="1450" />
      <circle r="36" class="dot" cx="550" cy="1550" />
      <circle r="36" class="dot" cx="550" cy="1650" />
      <circle r="36" class="dot" cx="550" cy="1750" />
      <circle r="36" class="dot" cx="550" cy="1850" />
      <circle r="36" class="dot" cx="550" cy="1950" />
      <circle r="36" class="dot" cx="550" cy="2050" />
      <circle r="36" class="dot" cx="650" cy="850" />
      <circle r="36" class="dot" cx="650" cy="950" />
      <circle r="36" class="dot" cx="650" cy="1050" />
      <circle r="36" class="dot" cx="650" cy="1150" />
      <circle r="36" class="dot" cx="650" cy="1250" />
      <circle r="36" class="dot" cx="650" cy="1350" />
      <circle r="36" class="dot" cx="650" cy="1450" />
      <circle r="36" class="dot" cx="650" cy="1550" />
      <circle r="36" class="dot" cx="650" cy="1650" />
      <circle r="36" class="dot" cx="650" cy="1750" />
      <circle r="36" class="dot" cx="650" cy="1850" />
      <circle r="36" class="dot" cx="650" cy="1950" />
      <circle r="36" class="dot" cx="650" cy="2050" />
      <circle r="36" class="dot" cx="750" cy="750" />
      <circle r="36" class="dot" cx="750" cy="850" />
      <circle r="36" class="dot" cx="750" cy="950" />
      <circle r="36" class="dot" cx="750" cy="1050" />
      <circle r="36" class="dot" cx="750" cy="1150" />
      <circle r="36" class="dot" cx="750" cy="1250" />
      <circle r="36" class="dot" cx="750" cy="1350" />
      <circle r="36" class="dot" cx="750" cy="1450" />
      <circle r="36" class="dot" cx="750" cy="1550" />
      <circle r="36" class="dot" cx="750" cy="1650" />
      <circle r="36" class="dot" cx="750" cy="1750" />
      <circle r="36" class="dot" cx="750" cy="1850" />
      <circle r="36" class="dot" cx="750" cy="1950" />
      <circle r="36" class="dot" cx="750" cy="2050" />
      <circle r="36" class="dot" cx="850" cy="650" />
      <circle r="36" class="dot" cx="850" cy="750" />
      <circle r="36" class="dot" cx="850" cy="850" />
      <circle r="36" class="dot" cx="850" cy="950" />
      <circle r="36" class="dot" cx="850" cy="1050" />
      <circle r="36" class="dot" cx="850" cy="1150" />
      <circle r="36" class="dot" cx="850" cy="1250" />
      <circle r="36" class="dot" cx="850" cy="1350" />
      <circle r="36" class="dot" cx="850" cy="1450" />
      <circle r="36" class="dot" cx="850" cy="1550" />
      <circle r="36" class="dot" cx="850" cy="1650" />
      <circle r="36" class="dot" cx="850" cy="1750" />
      <circle r="36" class="dot" cx="850" cy="1850" />
      <circle r="36" class="dot" cx="850" cy="1950" />
      <circle r="36" class="dot" cx="850" cy="2050" />
      <circle r="36" class="dot" cx="950" cy="550" />
      <circle r="36" class="dot" cx="950" cy="650" />
      <circle r="36" class="dot" cx="950" cy="750" />
      <circle r="36" class="dot" cx="950" cy="850" />
      <circle r="36" class="dot" cx="950" cy="950" />
      <circle r="36" class="dot" cx="950" cy="1050" />
      <circle r="36" class="dot" cx="950" cy="1150" />
      <circle r="36" class="dot" cx="950" cy="1250" />
      <circle r="36" class="dot" cx="950" cy="1350" />
      <circle r="36" class="dot" cx="950" cy="1450" />
      <circle r="36" class="dot" cx="950" cy="1550" />
      <circle r="36" class="dot" cx="950" cy="1650" />
      <circle r="36" class="dot" cx="950" cy="1750" />
      <circle r="36" class="dot" cx="950" cy="1850" />
      <circle r="36" class="dot" cx="950" cy="1950" />
      <circle r="36" class="dot" cx="1050" cy="450" />
      <circle r="36" class="dot" cx="1050" cy="550" />
      <circle r="36" class="dot" cx="1050" cy="650" />
      <circle r="36" class="dot" cx="1050" cy="750" />
      <circle r="36" class="dot" cx="1050" cy="850" />
      <circle r="36" class="dot" cx="1050" cy="950" />
      <circle r="36" class="dot" cx="1050" cy="1050" />
      <circle r="36" class="dot" cx="1050" cy="1550" />
      <circle r="36" class="dot" cx="1050" cy="1650" />
      <circle r="36" class="dot" cx="1050" cy="1750" />
      <circle r="36" class="dot" cx="1050" cy="1850" />
      <circle r="36" class="dot" cx="1050" cy="1950" />
      <circle r="36" class="dot" cx="1150" cy="1150" />
      <circle r="36" class="dot" cx="1150" cy="1250" />
      <circle r="36" class="dot" cx="1150" cy="1350" />
      <circle r="36" class="dot" cx="1150" cy="1450" />
      <circle r="36" class="dot" cx="1150" cy="450" />
      <circle r="36" class="dot" cx="1150" cy="550" />
      <circle r="36" class="dot" cx="1150" cy="650" />
      <circle r="36" class="dot" cx="1150" cy="750" />
      <circle r="36" class="dot" cx="1150" cy="850" />
      <circle r="36" class="dot" cx="1150" cy="950" />
      <circle r="36" class="dot" cx="1150" cy="1050" />
      <circle r="36" class="dot" cx="1150" cy="1550" />
      <circle r="36" class="dot" cx="1150" cy="1650" />
      <circle r="36" class="dot" cx="1150" cy="1750" />
      <circle r="36" class="dot" cx="1150" cy="1850" />
      <circle r="36" class="dot" cx="1250" cy="450" />
      <circle r="36" class="dot" cx="1250" cy="550" />
      <circle r="36" class="dot" cx="1250" cy="650" />
      <circle r="36" class="dot" cx="1250" cy="750" />
      <circle r="36" class="dot" cx="1250" cy="850" />
      <circle r="36" class="dot" cx="1250" cy="950" />
      <circle r="36" class="dot" cx="1250" cy="1050" />
      <circle r="36" class="dot" cx="1250" cy="1650" />
      <circle r="36" class="dot" cx="1250" cy="1750" />
      <circle r="36" class="dot" cx="1250" cy="1850" />
      <circle r="36" class="dot" cx="1350" cy="350" />
      <circle r="36" class="dot" cx="1350" cy="450" />
      <circle r="36" class="dot" cx="1350" cy="550" />
      <circle r="36" class="dot" cx="1350" cy="650" />
      <circle r="36" class="dot" cx="1350" cy="750" />
      <circle r="36" class="dot" cx="1350" cy="850" />
      <circle r="36" class="dot" cx="1350" cy="950" />
      <circle r="36" class="dot" cx="1350" cy="1050" />
      <circle r="36" class="dot" cx="1350" cy="1650" />
      <circle r="36" class="dot" cx="1350" cy="1750" />
      <circle r="36" class="dot" cx="1350" cy="1850" />
      <circle r="36" class="dot" cx="1450" cy="250" />
      <circle r="36" class="dot" cx="1450" cy="350" />
      <circle r="36" class="dot" cx="1450" cy="450" />
      <circle r="36" class="dot" cx="1450" cy="550" />
      <circle r="36" class="dot" cx="1450" cy="650" />
      <circle r="36" class="dot" cx="1450" cy="750" />
      <circle r="36" class="dot" cx="1450" cy="850" />
      <circle r="36" class="dot" cx="1450" cy="950" />
      <circle r="36" class="dot" cx="1450" cy="1550" />
      <circle r="36" class="dot" cx="1450" cy="1650" />
      <circle r="36" class="dot" cx="1450" cy="1750" />
      <circle r="36" class="dot" cx="1450" cy="1850" />
      <circle r="36" class="dot" cx="1450" cy="1950" />
      <circle r="36" class="dot" cx="1550" cy="250" />
      <circle r="36" class="dot" cx="1550" cy="350" />
      <circle r="36" class="dot" cx="1550" cy="450" />
      <circle r="36" class="dot" cx="1550" cy="550" />
      <circle r="36" class="dot" cx="1550" cy="650" />
      <circle r="36" class="dot" cx="1550" cy="750" />
      <circle r="36" class="dot" cx="1550" cy="850" />
      <circle r="36" class="dot" cx="1550" cy="950" />
      <circle r="36" class="dot" cx="1550" cy="1550" />
      <circle r="36" class="dot" cx="1550" cy="1650" />
      <circle r="36" class="dot" cx="1550" cy="1750" />
      <circle r="36" class="dot" cx="1550" cy="1850" />
      <circle r="36" class="dot" cx="1550" cy="1950" />
      <circle r="36" class="dot" cx="1550" cy="2050" />
      <circle r="36" class="dot" cx="1650" cy="250" />
      <circle r="36" class="dot" cx="1650" cy="350" />
      <circle r="36" class="dot" cx="1650" cy="450" />
      <circle r="36" class="dot" cx="1650" cy="550" />
      <circle r="36" class="dot" cx="1650" cy="650" />
      <circle r="36" class="dot" cx="1650" cy="750" />
      <circle r="36" class="dot" cx="1650" cy="850" />
      <circle r="36" class="dot" cx="1650" cy="950" />
      <circle r="36" class="dot" cx="1650" cy="1050" />
      <circle r="36" class="dot" cx="1650" cy="1650" />
      <circle r="36" class="dot" cx="1650" cy="1750" />
      <circle r="36" class="dot" cx="1650" cy="1850" />
      <circle r="36" class="dot" cx="1650" cy="1950" />
      <circle r="36" class="dot" cx="1650" cy="2050" />
      <circle r="36" class="dot" cx="1750" cy="250" />
      <circle r="36" class="dot" cx="1750" cy="350" />
      <circle r="36" class="dot" cx="1750" cy="550" />
      <circle r="36" class="dot" cx="1750" cy="650" />
      <circle r="36" class="dot" cx="1750" cy="750" />
      <circle r="36" class="dot" cx="1750" cy="850" />
      <circle r="36" class="dot" cx="1750" cy="950" />
      <circle r="36" class="dot" cx="1750" cy="1050" />
      <circle r="36" class="dot" cx="1750" cy="1650" />
      <circle r="36" class="dot" cx="1750" cy="1750" />
      <circle r="36" class="dot" cx="1750" cy="1850" />
      <circle r="36" class="dot" cx="1750" cy="1950" />
      <circle r="36" class="dot" cx="1750" cy="2050" />
      <circle r="36" class="dot" cx="1850" cy="550" />
      <circle r="36" class="dot" cx="1850" cy="650" />
      <circle r="36" class="dot" cx="1850" cy="750" />
      <circle r="36" class="dot" cx="1850" cy="850" />
      <circle r="36" class="dot" cx="1850" cy="950" />
      <circle r="36" class="dot" cx="1850" cy="1550" />
      <circle r="36" class="dot" cx="1850" cy="1650" />
      <circle r="36" class="dot" cx="1850" cy="1750" />
      <circle r="36" class="dot" cx="1850" cy="1850" />
      <circle r="36" class="dot" cx="1850" cy="1950" />
      <circle r="36" class="dot" cx="1850" cy="2050" />
      <circle r="36" class="dot" cx="1850" cy="2150" />
      <circle r="36" class="dot" cx="1950" cy="650" />
      <circle r="36" class="dot" cx="1950" cy="750" />
      <circle r="36" class="dot" cx="1950" cy="850" />
      <circle r="36" class="dot" cx="1950" cy="950" />
      <circle r="36" class="dot" cx="1950" cy="1550" />
      <circle r="36" class="dot" cx="1950" cy="1650" />
      <circle r="36" class="dot" cx="1950" cy="1750" />
      <circle r="36" class="dot" cx="1950" cy="1850" />
      <circle r="36" class="dot" cx="1950" cy="1950" />
      <circle r="36" class="dot" cx="1950" cy="2050" />
      <circle r="36" class="dot" cx="1950" cy="2150" />
      <circle r="36" class="dot" cx="1950" cy="2250" />
      <circle r="36" class="dot" cx="2050" cy="650" />
      <circle r="36" class="dot" cx="2050" cy="750" />
      <circle r="36" class="dot" cx="2050" cy="850" />
      <circle r="36" class="dot" cx="2050" cy="950" />
      <circle r="36" class="dot" cx="2050" cy="2050" />
      <circle r="36" class="dot" cx="2050" cy="2150" />
      <circle r="36" class="dot" cx="2050" cy="2250" />
      <circle r="36" class="dot" cx="2050" cy="2350" />
      <circle r="36" class="dot" cx="2150" cy="150" />
      <circle r="36" class="dot" cx="2150" cy="250" />
      <circle r="36" class="dot" cx="2150" cy="350" />
      <circle r="36" class="dot" cx="2150" cy="450" />
      <circle r="36" class="dot" cx="2150" cy="550" />
      <circle r="36" class="dot" cx="2150" cy="650" />
      <circle r="36" class="dot" cx="2150" cy="750" />
      <circle r="36" class="dot" cx="2150" cy="850" />
      <circle r="36" class="dot" cx="2150" cy="950" />
      <circle r="36" class="dot" cx="2150" cy="1050" />
      <circle r="36" class="dot" cx="2150" cy="1150" />
      <circle r="36" class="dot" cx="2150" cy="1250" />
      <circle r="36" class="dot" cx="2150" cy="1350" />
      <circle r="36" class="dot" cx="2150" cy="1450" />
      <circle r="36" class="dot" cx="2150" cy="1550" />
      <circle r="36" class="dot" cx="2150" cy="1650" />
      <circle r="36" class="dot" cx="2150" cy="1750" />
      <circle r="36" class="dot" cx="2150" cy="1850" />
      <circle r="36" class="dot" cx="2150" cy="1950" />
      <circle r="36" class="dot" cx="2150" cy="2050" />
      <circle r="36" class="dot" cx="2150" cy="2150" />
      <circle r="36" class="dot" cx="2150" cy="2250" />
      <circle r="36" class="dot" cx="2150" cy="2350" />
      <circle r="36" class="dot" cx="2150" cy="2450" />
      <circle r="36" class="dot" cx="2250" cy="250" />
      <circle r="36" class="dot" cx="2250" cy="350" />
      <circle r="36" class="dot" cx="2250" cy="450" />
      <circle r="36" class="dot" cx="2250" cy="550" />
      <circle r="36" class="dot" cx="2250" cy="650" />
      <circle r="36" class="dot" cx="2250" cy="750" />
      <circle r="36" class="dot" cx="2250" cy="850" />
      <circle r="36" class="dot" cx="2250" cy="950" />
      <circle r="36" class="dot" cx="2250" cy="1050" />
      <circle r="36" class="dot" cx="2250" cy="1150" />
      <circle r="36" class="dot" cx="2250" cy="1250" />
      <circle r="36" class="dot" cx="2250" cy="1350" />
      <circle r="36" class="dot" cx="2250" cy="1450" />
      <circle r="36" class="dot" cx="2250" cy="1550" />
      <circle r="36" class="dot" cx="2250" cy="1650" />
      <circle r="36" class="dot" cx="2250" cy="1750" />
      <circle r="36" class="dot" cx="2250" cy="1850" />
      <circle r="36" class="dot" cx="2250" cy="1950" />
      <circle r="36" class="dot" cx="2250" cy="2050" />
      <circle r="36" class="dot" cx="2250" cy="2150" />
      <circle r="36" class="dot" cx="2250" cy="2250" />
      <circle r="36" class="dot" cx="2250" cy="2350" />
      <circle r="36" class="dot" cx="2250" cy="2450" />
      <circle r="36" class="dot" cx="2350" cy="450" />
      <circle r="36" class="dot" cx="2350" cy="550" />
      <circle r="36" class="dot" cx="2350" cy="650" />
      <circle r="36" class="dot" cx="2350" cy="750" />
      <circle r="36" class="dot" cx="2350" cy="850" />
      <circle r="36" class="dot" cx="2350" cy="950" />
      <circle r="36" class="dot" cx="2350" cy="1050" />
      <circle r="36" class="dot" cx="2350" cy="1150" />
      <circle r="36" class="dot" cx="2350" cy="1250" />
      <circle r="36" class="dot" cx="2350" cy="1350" />
      <circle r="36" class="dot" cx="2350" cy="1450" />
      <circle r="36" class="dot" cx="2350" cy="1550" />
      <circle r="36" class="dot" cx="2350" cy="1650" />
      <circle r="36" class="dot" cx="2350" cy="1750" />
      <circle r="36" class="dot" cx="2350" cy="1850" />
      <circle r="36" class="dot" cx="2350" cy="1950" />
      <circle r="36" class="dot" cx="2350" cy="2050" />
      <circle r="36" class="dot" cx="2350" cy="2150" />
      <circle r="36" class="dot" cx="2350" cy="2250" />
      <circle r="36" class="dot" cx="2350" cy="2350" />
      <circle r="36" class="dot" cx="2350" cy="2650" />
      <circle r="36" class="dot" cx="2350" cy="2750" />
      <circle r="36" class="dot" cx="2450" cy="550" />
      <circle r="36" class="dot" cx="2450" cy="650" />
      <circle r="36" class="dot" cx="2450" cy="750" />
      <circle r="36" class="dot" cx="2450" cy="850" />
      <circle r="36" class="dot" cx="2450" cy="950" />
      <circle r="36" class="dot" cx="2450" cy="1050" />
      <circle r="36" class="dot" cx="2450" cy="1150" />
      <circle r="36" class="dot" cx="2450" cy="1250" />
      <circle r="36" class="dot" cx="2450" cy="1350" />
      <circle r="36" class="dot" cx="2450" cy="1450" />
      <circle r="36" class="dot" cx="2450" cy="1550" />
      <circle r="36" class="dot" cx="2450" cy="1650" />
      <circle r="36" class="dot" cx="2450" cy="1750" />
      <circle r="36" class="dot" cx="2450" cy="1850" />
      <circle r="36" class="dot" cx="2450" cy="1950" />
      <circle r="36" class="dot" cx="2450" cy="2050" />
      <circle r="36" class="dot" cx="2450" cy="2150" />
      <circle r="36" class="dot" cx="2450" cy="2250" />
      <circle r="36" class="dot" cx="2450" cy="2350" />
      <circle r="36" class="dot" cx="2450" cy="2450" />
      <circle r="36" class="dot" cx="2450" cy="2650" />
      <circle r="36" class="dot" cx="2450" cy="2750" />
      <circle r="36" class="dot" cx="2450" cy="2850" />
      <circle r="36" class="dot" cx="2550" cy="950" />
      <circle r="36" class="dot" cx="2550" cy="1050" />
      <circle r="36" class="dot" cx="2550" cy="1150" />
      <circle r="36" class="dot" cx="2550" cy="1250" />
      <circle r="36" class="dot" cx="2550" cy="1350" />
      <circle r="36" class="dot" cx="2550" cy="1450" />
      <circle r="36" class="dot" cx="2550" cy="1550" />
      <circle r="36" class="dot" cx="2550" cy="1650" />
      <circle r="36" class="dot" cx="2550" cy="1750" />
      <circle r="36" class="dot" cx="2550" cy="1850" />
      <circle r="36" class="dot" cx="2550" cy="1950" />
      <circle r="36" class="dot" cx="2550" cy="2050" />
      <circle r="36" class="dot" cx="2550" cy="2150" />
      <circle r="36" class="dot" cx="2550" cy="2250" />
      <circle r="36" class="dot" cx="2550" cy="2350" />
      <circle r="36" class="dot" cx="2550" cy="2650" />
      <circle r="36" class="dot" cx="2550" cy="2750" />
      <circle r="36" class="dot" cx="2550" cy="2850" />
      <circle r="36" class="dot" cx="2650" cy="1050" />
      <circle r="36" class="dot" cx="2650" cy="1150" />
      <circle r="36" class="dot" cx="2650" cy="1250" />
      <circle r="36" class="dot" cx="2650" cy="1350" />
      <circle r="36" class="dot" cx="2650" cy="1450" />
      <circle r="36" class="dot" cx="2650" cy="1550" />
      <circle r="36" class="dot" cx="2650" cy="1650" />
      <circle r="36" class="dot" cx="2650" cy="1750" />
      <circle r="36" class="dot" cx="2650" cy="1850" />
      <circle r="36" class="dot" cx="2650" cy="1950" />
      <circle r="36" class="dot" cx="2650" cy="2050" />
      <circle r="36" class="dot" cx="2650" cy="2150" />
      <circle r="36" class="dot" cx="2650" cy="2250" />
      <circle r="36" class="dot" cx="2650" cy="2350" />
      <circle r="36" class="dot" cx="2650" cy="2650" />
      <circle r="36" class="dot" cx="2650" cy="2750" />
      <circle r="36" class="dot" cx="2750" cy="1150" />
      <circle r="36" class="dot" cx="2750" cy="1250" />
      <circle r="36" class="dot" cx="2750" cy="1350" />
      <circle r="36" class="dot" cx="2750" cy="1450" />
      <circle r="36" class="dot" cx="2750" cy="1550" />
      <circle r="36" class="dot" cx="2750" cy="1650" />
      <circle r="36" class="dot" cx="2750" cy="1750" />
      <circle r="36" class="dot" cx="2750" cy="1850" />
      <circle r="36" class="dot" cx="2750" cy="1950" />
      <circle r="36" class="dot" cx="2750" cy="2050" />
      <circle r="36" class="dot" cx="2850" cy="1250" />
      <circle r="36" class="dot" cx="2850" cy="1350" />
      <circle r="36" class="dot" cx="2850" cy="1450" />
      <circle r="36" class="dot" cx="2850" cy="1550" />
      <circle r="36" class="dot" cx="2850" cy="1650" />
      <circle r="36" class="dot" cx="2850" cy="1750" />
      <circle r="36" class="dot" cx="2850" cy="1850" />
      <circle r="36" class="dot" cx="2950" cy="1350" />
      <circle r="36" class="dot" cx="2950" cy="1450" />
      <circle r="36" class="dot" cx="2950" cy="1550" />
      <circle r="36" class="dot" cx="2950" cy="1650" />
      <circle r="36" class="dot" cx="1050" cy="1150" />
      <circle r="36" class="dot" cx="1050" cy="1250" />
      <circle r="36" class="dot" cx="1050" cy="1350" />
      <circle r="36" class="dot" cx="1050" cy="1450" />
    </g>
  </g>
</svg>
